<?xml version="1.0" encoding="UTF-8"?><svg id="Layer_1" xmlns="http://www.w3.org/2000/svg" xmlns:xlink="http://www.w3.org/1999/xlink" viewBox="0 0 1024 1024"><defs><style>.cls-1{fill:#fff;}.cls-2{fill:#be1e2d;}.cls-3{fill:url(#linear-gradient);}</style><linearGradient id="linear-gradient" x1="512" y1="990.96" x2="512" y2="-.4" gradientUnits="userSpaceOnUse"><stop offset="0" stop-color="#eb5d47"/><stop offset="1" stop-color="#eb4f47"/></linearGradient></defs><rect class="cls-2" y="-.02" width="1024" height="1024"/><rect class="cls-3" y="-.02" width="1024" height="1024"/><path class="cls-1" d="m480,656.03c0,106.04-85.96,192-192,192H0v-96h288c53.02,0,96-42.98,96-96s-42.98-96-96-96h-48c-36.23,0-70.12-10.03-99.03-27.47-55.71-33.61-92.97-94.72-92.97-164.53,0-34.97,9.35-67.76,25.69-96,33.19-57.39,95.24-96,166.31-96h156.08c-8.76,13.88-13.82,30.33-13.82,47.96s5.08,34.14,13.88,48.04h-156.14c-53.02,0-96,42.98-96,96s42.98,96,96,96h48c36.23,0,70.12,10.03,99.03,27.47,55.71,33.61,92.97,94.72,92.97,164.53Z"/><path class="cls-1" d="m735.29,272c.41,0,.83.01,1.24.03h-2.48c.41-.02.83-.03,1.24-.03Z"/><path class="cls-1" d="m1024,176.03v96h-146.69c-6.7-40-29.88-74.41-62.33-96h209.02Z"/><path class="cls-1" d="m855.29,296c0,12.43-1.89,24.41-5.39,35.69,0,.01,0,.02,0,.04l-21.18,73.86-58.38,203.59c-15.88-17.78-38.71-29.22-64.23-30.02h-5.81c-7.69.24-15.14,1.45-22.23,3.51l41.16-143.56,6.73-23.47,32.26-112.51c.05-.17.11-.35.15-.52.61-2.1.93-4.32.93-6.61,0-12.85-10.08-23.33-22.76-23.97-.41-.02-.83-.03-1.24-.03s-.83.01-1.24.03h-185.67c8.8-13.9,13.88-30.38,13.88-48.04s-5.06-34.08-13.82-47.96h189.18c57.03,1.08,104.32,41.94,115.27,96,1.58,7.75,2.4,15.76,2.4,23.97Z"/><path class="cls-1" d="m750.53,176.03h-4.65c.77-.02,1.55-.03,2.32-.03s1.56.01,2.33.03Z"/><path class="cls-1" d="m728.35,755.58l-76.96,268.41h-99.87l84.55-294.89c16.48,18.45,40.44,30.06,67.12,30.06,8.73,0,17.18-1.24,25.16-3.58Z"/><path class="cls-1" d="m767.83,669.14c0,36.46-29.55,66.02-66,66.02s-66-29.56-66-66.02,28.41-64.87,63.87-65.98h4.26c35.46,1.11,63.87,30.23,63.87,65.98Z"/><path class="cls-1" d="m538.26,223.99c0,36.46-29.55,66.02-66,66.02s-66-29.56-66-66.02,28.41-64.87,63.87-65.98h4.26c35.46,1.11,63.87,30.23,63.87,65.98Z"/></svg>