<?xml version="1.0" encoding="UTF-8"?><svg id="Layer_1" xmlns="http://www.w3.org/2000/svg" xmlns:xlink="http://www.w3.org/1999/xlink" viewBox="0 0 128 128"><defs><style>.cls-1{fill:#fff;}.cls-2{fill:url(#linear-gradient);}</style><linearGradient id="linear-gradient" x1="64" y1="127.99" x2="64" y2="0" gradientUnits="userSpaceOnUse"><stop offset="0" stop-color="#eb5d47"/><stop offset="1" stop-color="#eb4f47"/></linearGradient></defs><rect class="cls-2" width="128" height="127.99"/><path class="cls-1" d="m60,82c0,13.26-10.74,24-24,24H0v-12h36c6.63,0,12-5.37,12-12s-5.37-12-12-12h-6c-4.53,0-8.77-1.25-12.38-3.43-6.96-4.2-11.62-11.84-11.62-20.57,0-4.37,1.17-8.47,3.21-12,4.15-7.17,11.91-12,20.79-12h16.94c-.91,1.8-1.41,3.84-1.41,6s.51,4.19,1.41,6h-16.94c-6.63,0-12,5.38-12,12s5.37,12,12,12h6c4.53,0,8.77,1.26,12.38,3.44,6.96,4.2,11.62,11.84,11.62,20.56Z"/><path class="cls-1" d="m91.91,34c.05,0,.1,0,.15,0h-.31c.05,0,.1,0,.15,0Z"/><path class="cls-1" d="m128,22v12h-16.82c-.74-4.8-3.23-9.02-6.8-12h23.62Z"/><path class="cls-1" d="m106.91,37c0,1.55-.24,3.05-.67,4.46h0s-2.65,9.24-2.65,9.24l-6.62,23.09c-2.32-2.18-5.4-3.54-8.8-3.64h-.88c-.62.02-1.22.08-1.81.18l4.42-15.44.84-2.93,4.04-14.07s0-.04,0-.06c.08-.27.12-.54.12-.83,0-1.61-1.26-2.92-2.84-3h-20.95c.9-1.81,1.41-3.84,1.41-6s-.5-4.2-1.41-6h21.08c7.13.14,13.04,5.25,14.41,12,.2.97.3,1.97.3,3Z"/><path class="cls-1" d="m93.82,22h-.58c.1,0,.19,0,.29,0s.19,0,.29,0Z"/><path class="cls-1" d="m90.34,96.9l-8.92,31.1h-12.48l9.82-34.26c2.38,2.12,5.53,3.41,8.97,3.41.89,0,1.77-.09,2.61-.25Z"/><path class="cls-1" d="m96.73,83.64c0,4.97-4.03,9-9,9s-9-4.03-9-9,3.87-8.85,8.71-9h.58c4.84.15,8.71,4.12,8.71,9Z"/><path class="cls-1" d="m68.03,28c0,4.97-4.03,9-9,9s-9-4.03-9-9,3.87-8.85,8.71-9h.58c4.84.15,8.71,4.12,8.71,9Z"/></svg>