<?xml version="1.0" encoding="UTF-8"?><svg id="Layer_1" xmlns="http://www.w3.org/2000/svg" xmlns:xlink="http://www.w3.org/1999/xlink" viewBox="0 0 64 64"><defs><style>.cls-1{fill:#fff;}.cls-2{fill:url(#linear-gradient);}</style><linearGradient id="linear-gradient" x1="0" y1="32" x2="64" y2="32" gradientUnits="userSpaceOnUse"><stop offset="0" stop-color="#eb5d47"/><stop offset="1" stop-color="#eb4f47"/></linearGradient></defs><rect class="cls-2" x="0" width="64" height="63.99"/><path class="cls-1" d="m45.96,17s.05,0,.08,0h-.15s.05,0,.08,0Z"/><path class="cls-1" d="m46.91,11h-.29s.1,0,.15,0,.1,0,.15,0Z"/><path class="cls-1" d="m53.96,17.82l-.16.57c.01-.21.07-.4.16-.57Z"/><path class="cls-1" d="m15,13c-4.44,0-8.31,2.41-10.39,6-1.02,1.76-1.61,3.82-1.61,6,0,4.36,2.34,8.18,5.81,10.28,1.82,1.1,3.93,1.72,6.19,1.72h3c3.32,0,6,2.69,6,6s-2.68,6-6,6H0v6h18c6.63,0,12-5.37,12-12,0-4.36-2.33-8.18-5.81-10.28-1.79-1.09-3.92-1.72-6.19-1.72h-3c-3.31,0-6-2.68-6-6s2.69-6,6-6h31.04c.8.04,1.42.7,1.42,1.5,0,.14-.02.28-.06.41,0,0-5.94,20.74-9.77,34.09h6.23l9.93-34.61c.01-.21.07-.4.16-.57.24-.49.75-.82,1.33-.82h8.67v-6H15Z"/></svg>