%TF.GenerationSoftware,KiCad,Pcbnew,(6.0.10-0)*%
%TF.CreationDate,2023-02-27T21:07:28-05:00*%
%TF.ProjectId,Shuttle Tracker Node,53687574-746c-4652-9054-7261636b6572,rev?*%
%TF.SameCoordinates,Original*%
%TF.FileFunction,Drillmap*%
%TF.FilePolarity,Positive*%
%FSLAX45Y45*%
G04 Gerber Fmt 4.5, Leading zero omitted, Abs format (unit mm)*
G04 Created by KiCad (PCBNEW (6.0.10-0)) date 2023-02-27 21:07:28*
%MOMM*%
%LPD*%
G01*
G04 APERTURE LIST*
%ADD10C,0.100000*%
%ADD11C,0.200000*%
%ADD12C,0.320000*%
G04 APERTURE END LIST*
D10*
X22504400Y-12192000D02*
G75*
G03*
X22860000Y-11836400I0J355600D01*
G01*
X22860000Y-8134350D02*
G75*
G03*
X22504400Y-7778750I-355600J0D01*
G01*
X13328650Y-7778750D02*
G75*
G03*
X12973050Y-8134350I0J-355600D01*
G01*
X22860000Y-11836400D02*
X22860000Y-8134350D01*
X12973050Y-8134350D02*
X12973050Y-11836400D01*
X12973050Y-11836400D02*
G75*
G03*
X13328650Y-12192000I355600J0D01*
G01*
X22504400Y-7778750D02*
X13328650Y-7778750D01*
X13328650Y-12192000D02*
X22504400Y-12192000D01*
D11*
D12*
X13168650Y-7974350D02*
X13488650Y-8294350D01*
X13488650Y-7974350D02*
X13168650Y-8294350D01*
X13168650Y-11676400D02*
X13488650Y-11996400D01*
X13488650Y-11676400D02*
X13168650Y-11996400D01*
X22338050Y-7974350D02*
X22658050Y-8294350D01*
X22658050Y-7974350D02*
X22338050Y-8294350D01*
X22338050Y-11676400D02*
X22658050Y-11996400D01*
X22658050Y-11676400D02*
X22338050Y-11996400D01*
D11*
X13225669Y-12507476D02*
X13225669Y-12307476D01*
X13273288Y-12307476D01*
X13301859Y-12317000D01*
X13320907Y-12336048D01*
X13330431Y-12355095D01*
X13339955Y-12393190D01*
X13339955Y-12421762D01*
X13330431Y-12459857D01*
X13320907Y-12478905D01*
X13301859Y-12497952D01*
X13273288Y-12507476D01*
X13225669Y-12507476D01*
X13425669Y-12507476D02*
X13425669Y-12374143D01*
X13425669Y-12412238D02*
X13435193Y-12393190D01*
X13444717Y-12383667D01*
X13463764Y-12374143D01*
X13482812Y-12374143D01*
X13549478Y-12507476D02*
X13549478Y-12374143D01*
X13549478Y-12307476D02*
X13539955Y-12317000D01*
X13549478Y-12326524D01*
X13559002Y-12317000D01*
X13549478Y-12307476D01*
X13549478Y-12326524D01*
X13673288Y-12507476D02*
X13654240Y-12497952D01*
X13644717Y-12478905D01*
X13644717Y-12307476D01*
X13778050Y-12507476D02*
X13759002Y-12497952D01*
X13749478Y-12478905D01*
X13749478Y-12307476D01*
X14006621Y-12507476D02*
X14006621Y-12307476D01*
X14073288Y-12450333D01*
X14139955Y-12307476D01*
X14139955Y-12507476D01*
X14320907Y-12507476D02*
X14320907Y-12402714D01*
X14311383Y-12383667D01*
X14292336Y-12374143D01*
X14254240Y-12374143D01*
X14235193Y-12383667D01*
X14320907Y-12497952D02*
X14301859Y-12507476D01*
X14254240Y-12507476D01*
X14235193Y-12497952D01*
X14225669Y-12478905D01*
X14225669Y-12459857D01*
X14235193Y-12440809D01*
X14254240Y-12431286D01*
X14301859Y-12431286D01*
X14320907Y-12421762D01*
X14416145Y-12374143D02*
X14416145Y-12574143D01*
X14416145Y-12383667D02*
X14435193Y-12374143D01*
X14473288Y-12374143D01*
X14492336Y-12383667D01*
X14501859Y-12393190D01*
X14511383Y-12412238D01*
X14511383Y-12469381D01*
X14501859Y-12488428D01*
X14492336Y-12497952D01*
X14473288Y-12507476D01*
X14435193Y-12507476D01*
X14416145Y-12497952D01*
X14597098Y-12488428D02*
X14606621Y-12497952D01*
X14597098Y-12507476D01*
X14587574Y-12497952D01*
X14597098Y-12488428D01*
X14597098Y-12507476D01*
X14597098Y-12383667D02*
X14606621Y-12393190D01*
X14597098Y-12402714D01*
X14587574Y-12393190D01*
X14597098Y-12383667D01*
X14597098Y-12402714D01*
X12768050Y-12737000D02*
X12968050Y-12937000D01*
X12968050Y-12737000D02*
X12768050Y-12937000D01*
X13206621Y-12727476D02*
X13330431Y-12727476D01*
X13263764Y-12803667D01*
X13292336Y-12803667D01*
X13311383Y-12813190D01*
X13320907Y-12822714D01*
X13330431Y-12841762D01*
X13330431Y-12889381D01*
X13320907Y-12908428D01*
X13311383Y-12917952D01*
X13292336Y-12927476D01*
X13235193Y-12927476D01*
X13216145Y-12917952D01*
X13206621Y-12908428D01*
X13416145Y-12908428D02*
X13425669Y-12917952D01*
X13416145Y-12927476D01*
X13406621Y-12917952D01*
X13416145Y-12908428D01*
X13416145Y-12927476D01*
X13501859Y-12746524D02*
X13511383Y-12737000D01*
X13530431Y-12727476D01*
X13578050Y-12727476D01*
X13597098Y-12737000D01*
X13606621Y-12746524D01*
X13616145Y-12765571D01*
X13616145Y-12784619D01*
X13606621Y-12813190D01*
X13492336Y-12927476D01*
X13616145Y-12927476D01*
X13739955Y-12727476D02*
X13759002Y-12727476D01*
X13778050Y-12737000D01*
X13787574Y-12746524D01*
X13797098Y-12765571D01*
X13806621Y-12803667D01*
X13806621Y-12851286D01*
X13797098Y-12889381D01*
X13787574Y-12908428D01*
X13778050Y-12917952D01*
X13759002Y-12927476D01*
X13739955Y-12927476D01*
X13720907Y-12917952D01*
X13711383Y-12908428D01*
X13701859Y-12889381D01*
X13692336Y-12851286D01*
X13692336Y-12803667D01*
X13701859Y-12765571D01*
X13711383Y-12746524D01*
X13720907Y-12737000D01*
X13739955Y-12727476D01*
X13930431Y-12727476D02*
X13949478Y-12727476D01*
X13968526Y-12737000D01*
X13978050Y-12746524D01*
X13987574Y-12765571D01*
X13997098Y-12803667D01*
X13997098Y-12851286D01*
X13987574Y-12889381D01*
X13978050Y-12908428D01*
X13968526Y-12917952D01*
X13949478Y-12927476D01*
X13930431Y-12927476D01*
X13911383Y-12917952D01*
X13901859Y-12908428D01*
X13892336Y-12889381D01*
X13882812Y-12851286D01*
X13882812Y-12803667D01*
X13892336Y-12765571D01*
X13901859Y-12746524D01*
X13911383Y-12737000D01*
X13930431Y-12727476D01*
X14082812Y-12927476D02*
X14082812Y-12794143D01*
X14082812Y-12813190D02*
X14092336Y-12803667D01*
X14111383Y-12794143D01*
X14139955Y-12794143D01*
X14159002Y-12803667D01*
X14168526Y-12822714D01*
X14168526Y-12927476D01*
X14168526Y-12822714D02*
X14178050Y-12803667D01*
X14197098Y-12794143D01*
X14225669Y-12794143D01*
X14244717Y-12803667D01*
X14254240Y-12822714D01*
X14254240Y-12927476D01*
X14349478Y-12927476D02*
X14349478Y-12794143D01*
X14349478Y-12813190D02*
X14359002Y-12803667D01*
X14378050Y-12794143D01*
X14406621Y-12794143D01*
X14425669Y-12803667D01*
X14435193Y-12822714D01*
X14435193Y-12927476D01*
X14435193Y-12822714D02*
X14444717Y-12803667D01*
X14463764Y-12794143D01*
X14492336Y-12794143D01*
X14511383Y-12803667D01*
X14520907Y-12822714D01*
X14520907Y-12927476D01*
X14911383Y-12717952D02*
X14739955Y-12975095D01*
X15168526Y-12727476D02*
X15187574Y-12727476D01*
X15206621Y-12737000D01*
X15216145Y-12746524D01*
X15225669Y-12765571D01*
X15235193Y-12803667D01*
X15235193Y-12851286D01*
X15225669Y-12889381D01*
X15216145Y-12908428D01*
X15206621Y-12917952D01*
X15187574Y-12927476D01*
X15168526Y-12927476D01*
X15149478Y-12917952D01*
X15139955Y-12908428D01*
X15130431Y-12889381D01*
X15120907Y-12851286D01*
X15120907Y-12803667D01*
X15130431Y-12765571D01*
X15139955Y-12746524D01*
X15149478Y-12737000D01*
X15168526Y-12727476D01*
X15320907Y-12908428D02*
X15330431Y-12917952D01*
X15320907Y-12927476D01*
X15311383Y-12917952D01*
X15320907Y-12908428D01*
X15320907Y-12927476D01*
X15520907Y-12927476D02*
X15406621Y-12927476D01*
X15463764Y-12927476D02*
X15463764Y-12727476D01*
X15444717Y-12756048D01*
X15425669Y-12775095D01*
X15406621Y-12784619D01*
X15597098Y-12746524D02*
X15606621Y-12737000D01*
X15625669Y-12727476D01*
X15673288Y-12727476D01*
X15692336Y-12737000D01*
X15701859Y-12746524D01*
X15711383Y-12765571D01*
X15711383Y-12784619D01*
X15701859Y-12813190D01*
X15587574Y-12927476D01*
X15711383Y-12927476D01*
X15882812Y-12727476D02*
X15844717Y-12727476D01*
X15825669Y-12737000D01*
X15816145Y-12746524D01*
X15797098Y-12775095D01*
X15787574Y-12813190D01*
X15787574Y-12889381D01*
X15797098Y-12908428D01*
X15806621Y-12917952D01*
X15825669Y-12927476D01*
X15863764Y-12927476D01*
X15882812Y-12917952D01*
X15892336Y-12908428D01*
X15901859Y-12889381D01*
X15901859Y-12841762D01*
X15892336Y-12822714D01*
X15882812Y-12813190D01*
X15863764Y-12803667D01*
X15825669Y-12803667D01*
X15806621Y-12813190D01*
X15797098Y-12822714D01*
X15787574Y-12841762D01*
X16025669Y-12727476D02*
X16044717Y-12727476D01*
X16063764Y-12737000D01*
X16073288Y-12746524D01*
X16082812Y-12765571D01*
X16092336Y-12803667D01*
X16092336Y-12851286D01*
X16082812Y-12889381D01*
X16073288Y-12908428D01*
X16063764Y-12917952D01*
X16044717Y-12927476D01*
X16025669Y-12927476D01*
X16006621Y-12917952D01*
X15997098Y-12908428D01*
X15987574Y-12889381D01*
X15978050Y-12851286D01*
X15978050Y-12803667D01*
X15987574Y-12765571D01*
X15997098Y-12746524D01*
X16006621Y-12737000D01*
X16025669Y-12727476D01*
X16168526Y-12727476D02*
X16168526Y-12765571D01*
X16244717Y-12727476D02*
X16244717Y-12765571D01*
X16539955Y-13003667D02*
X16530431Y-12994143D01*
X16511383Y-12965571D01*
X16501859Y-12946524D01*
X16492336Y-12917952D01*
X16482812Y-12870333D01*
X16482812Y-12832238D01*
X16492336Y-12784619D01*
X16501859Y-12756048D01*
X16511383Y-12737000D01*
X16530431Y-12708428D01*
X16539955Y-12698905D01*
X16701859Y-12794143D02*
X16701859Y-12927476D01*
X16654240Y-12717952D02*
X16606621Y-12860809D01*
X16730431Y-12860809D01*
X16959002Y-12927476D02*
X16959002Y-12727476D01*
X17044717Y-12927476D02*
X17044717Y-12822714D01*
X17035193Y-12803667D01*
X17016145Y-12794143D01*
X16987574Y-12794143D01*
X16968526Y-12803667D01*
X16959002Y-12813190D01*
X17168526Y-12927476D02*
X17149479Y-12917952D01*
X17139955Y-12908428D01*
X17130431Y-12889381D01*
X17130431Y-12832238D01*
X17139955Y-12813190D01*
X17149479Y-12803667D01*
X17168526Y-12794143D01*
X17197098Y-12794143D01*
X17216145Y-12803667D01*
X17225669Y-12813190D01*
X17235193Y-12832238D01*
X17235193Y-12889381D01*
X17225669Y-12908428D01*
X17216145Y-12917952D01*
X17197098Y-12927476D01*
X17168526Y-12927476D01*
X17349479Y-12927476D02*
X17330431Y-12917952D01*
X17320907Y-12898905D01*
X17320907Y-12727476D01*
X17501860Y-12917952D02*
X17482812Y-12927476D01*
X17444717Y-12927476D01*
X17425669Y-12917952D01*
X17416145Y-12898905D01*
X17416145Y-12822714D01*
X17425669Y-12803667D01*
X17444717Y-12794143D01*
X17482812Y-12794143D01*
X17501860Y-12803667D01*
X17511383Y-12822714D01*
X17511383Y-12841762D01*
X17416145Y-12860809D01*
X17587574Y-12917952D02*
X17606621Y-12927476D01*
X17644717Y-12927476D01*
X17663764Y-12917952D01*
X17673288Y-12898905D01*
X17673288Y-12889381D01*
X17663764Y-12870333D01*
X17644717Y-12860809D01*
X17616145Y-12860809D01*
X17597098Y-12851286D01*
X17587574Y-12832238D01*
X17587574Y-12822714D01*
X17597098Y-12803667D01*
X17616145Y-12794143D01*
X17644717Y-12794143D01*
X17663764Y-12803667D01*
X17739955Y-13003667D02*
X17749479Y-12994143D01*
X17768526Y-12965571D01*
X17778050Y-12946524D01*
X17787574Y-12917952D01*
X17797098Y-12870333D01*
X17797098Y-12832238D01*
X17787574Y-12784619D01*
X17778050Y-12756048D01*
X17768526Y-12737000D01*
X17749479Y-12708428D01*
X17739955Y-12698905D01*
X18101860Y-13003667D02*
X18092336Y-12994143D01*
X18073288Y-12965571D01*
X18063764Y-12946524D01*
X18054240Y-12917952D01*
X18044717Y-12870333D01*
X18044717Y-12832238D01*
X18054240Y-12784619D01*
X18063764Y-12756048D01*
X18073288Y-12737000D01*
X18092336Y-12708428D01*
X18101860Y-12698905D01*
X18178050Y-12794143D02*
X18178050Y-12927476D01*
X18178050Y-12813190D02*
X18187574Y-12803667D01*
X18206621Y-12794143D01*
X18235193Y-12794143D01*
X18254240Y-12803667D01*
X18263764Y-12822714D01*
X18263764Y-12927476D01*
X18387574Y-12927476D02*
X18368526Y-12917952D01*
X18359002Y-12908428D01*
X18349479Y-12889381D01*
X18349479Y-12832238D01*
X18359002Y-12813190D01*
X18368526Y-12803667D01*
X18387574Y-12794143D01*
X18416145Y-12794143D01*
X18435193Y-12803667D01*
X18444717Y-12813190D01*
X18454240Y-12832238D01*
X18454240Y-12889381D01*
X18444717Y-12908428D01*
X18435193Y-12917952D01*
X18416145Y-12927476D01*
X18387574Y-12927476D01*
X18511383Y-12794143D02*
X18587574Y-12794143D01*
X18539955Y-12727476D02*
X18539955Y-12898905D01*
X18549479Y-12917952D01*
X18568526Y-12927476D01*
X18587574Y-12927476D01*
X18806621Y-12794143D02*
X18806621Y-12994143D01*
X18806621Y-12803667D02*
X18825669Y-12794143D01*
X18863764Y-12794143D01*
X18882812Y-12803667D01*
X18892336Y-12813190D01*
X18901860Y-12832238D01*
X18901860Y-12889381D01*
X18892336Y-12908428D01*
X18882812Y-12917952D01*
X18863764Y-12927476D01*
X18825669Y-12927476D01*
X18806621Y-12917952D01*
X19016145Y-12927476D02*
X18997098Y-12917952D01*
X18987574Y-12898905D01*
X18987574Y-12727476D01*
X19178050Y-12927476D02*
X19178050Y-12822714D01*
X19168526Y-12803667D01*
X19149479Y-12794143D01*
X19111383Y-12794143D01*
X19092336Y-12803667D01*
X19178050Y-12917952D02*
X19159002Y-12927476D01*
X19111383Y-12927476D01*
X19092336Y-12917952D01*
X19082812Y-12898905D01*
X19082812Y-12879857D01*
X19092336Y-12860809D01*
X19111383Y-12851286D01*
X19159002Y-12851286D01*
X19178050Y-12841762D01*
X19244717Y-12794143D02*
X19320907Y-12794143D01*
X19273288Y-12727476D02*
X19273288Y-12898905D01*
X19282812Y-12917952D01*
X19301860Y-12927476D01*
X19320907Y-12927476D01*
X19463764Y-12917952D02*
X19444717Y-12927476D01*
X19406621Y-12927476D01*
X19387574Y-12917952D01*
X19378050Y-12898905D01*
X19378050Y-12822714D01*
X19387574Y-12803667D01*
X19406621Y-12794143D01*
X19444717Y-12794143D01*
X19463764Y-12803667D01*
X19473288Y-12822714D01*
X19473288Y-12841762D01*
X19378050Y-12860809D01*
X19644717Y-12927476D02*
X19644717Y-12727476D01*
X19644717Y-12917952D02*
X19625669Y-12927476D01*
X19587574Y-12927476D01*
X19568526Y-12917952D01*
X19559002Y-12908428D01*
X19549479Y-12889381D01*
X19549479Y-12832238D01*
X19559002Y-12813190D01*
X19568526Y-12803667D01*
X19587574Y-12794143D01*
X19625669Y-12794143D01*
X19644717Y-12803667D01*
X19720907Y-13003667D02*
X19730431Y-12994143D01*
X19749479Y-12965571D01*
X19759002Y-12946524D01*
X19768526Y-12917952D01*
X19778050Y-12870333D01*
X19778050Y-12832238D01*
X19768526Y-12784619D01*
X19759002Y-12756048D01*
X19749479Y-12737000D01*
X19730431Y-12708428D01*
X19720907Y-12698905D01*
M02*
