%TF.GenerationSoftware,KiCad,Pcbnew,(6.0.10-0)*%
%TF.CreationDate,2023-03-25T14:15:02-04:00*%
%TF.ProjectId,Shuttle Tracker Node,53687574-746c-4652-9054-7261636b6572,rev?*%
%TF.SameCoordinates,Original*%
%TF.FileFunction,Legend,Top*%
%TF.FilePolarity,Positive*%
%FSLAX46Y46*%
G04 Gerber Fmt 4.6, Leading zero omitted, Abs format (unit mm)*
G04 Created by KiCad (PCBNEW (6.0.10-0)) date 2023-03-25 14:15:02*
%MOMM*%
%LPD*%
G01*
G04 APERTURE LIST*
%ADD10C,0.000000*%
%ADD11C,0.150000*%
%ADD12C,0.120000*%
%ADD13C,0.127000*%
%ADD14C,0.200000*%
G04 APERTURE END LIST*
D10*
G36*
X208507559Y-110709003D02*
G01*
X208497322Y-110574816D01*
X208480466Y-110442558D01*
X208457159Y-110312396D01*
X208427566Y-110184498D01*
X208391857Y-110059031D01*
X208350198Y-109936163D01*
X208302758Y-109816061D01*
X208249703Y-109698894D01*
X208191201Y-109584828D01*
X208127420Y-109474030D01*
X208058527Y-109366670D01*
X207984690Y-109262913D01*
X207906076Y-109162928D01*
X207822853Y-109066882D01*
X207735188Y-108974943D01*
X207643249Y-108887277D01*
X207547204Y-108804054D01*
X207447219Y-108725440D01*
X207343462Y-108651602D01*
X207236102Y-108582709D01*
X207125304Y-108518927D01*
X207011238Y-108460425D01*
X206894070Y-108407370D01*
X206773968Y-108359929D01*
X206651100Y-108318270D01*
X206525633Y-108282561D01*
X206397734Y-108252968D01*
X206267571Y-108229660D01*
X206135312Y-108212804D01*
X206001124Y-108202567D01*
X205865175Y-108199118D01*
X205507167Y-108199118D01*
X205439090Y-108197397D01*
X205371907Y-108192288D01*
X205305701Y-108183875D01*
X205240555Y-108172241D01*
X205176552Y-108157469D01*
X205113774Y-108139642D01*
X205052306Y-108118843D01*
X204992231Y-108095156D01*
X204933631Y-108068663D01*
X204876589Y-108039448D01*
X204821189Y-108007594D01*
X204767514Y-107973183D01*
X204715647Y-107936300D01*
X204665672Y-107897026D01*
X204617670Y-107855446D01*
X204571726Y-107811643D01*
X204527922Y-107765698D01*
X204486342Y-107717697D01*
X204447069Y-107667721D01*
X204410185Y-107615854D01*
X204375775Y-107562179D01*
X204343920Y-107506780D01*
X204314705Y-107449738D01*
X204288212Y-107391138D01*
X204264525Y-107331062D01*
X204243726Y-107269594D01*
X204225899Y-107206817D01*
X204211127Y-107142814D01*
X204199493Y-107077667D01*
X204191080Y-107011461D01*
X204185972Y-106944278D01*
X204184250Y-106876202D01*
X204185972Y-106808125D01*
X204191080Y-106740942D01*
X204199493Y-106674736D01*
X204211127Y-106609590D01*
X204225899Y-106545586D01*
X204243726Y-106482809D01*
X204264525Y-106421341D01*
X204288212Y-106361266D01*
X204314705Y-106302666D01*
X204343920Y-106245624D01*
X204375775Y-106190224D01*
X204410185Y-106136549D01*
X204447069Y-106084682D01*
X204486342Y-106034707D01*
X204527922Y-105986705D01*
X204571726Y-105940761D01*
X204617670Y-105896957D01*
X204665672Y-105855377D01*
X204715647Y-105816104D01*
X204767514Y-105779220D01*
X204821189Y-105744810D01*
X204876589Y-105712955D01*
X204933631Y-105683740D01*
X204992231Y-105657248D01*
X205052306Y-105633560D01*
X205113774Y-105612762D01*
X205176552Y-105594935D01*
X205240555Y-105580163D01*
X205305701Y-105568528D01*
X205371907Y-105560115D01*
X205439090Y-105555007D01*
X205507167Y-105553285D01*
X207772251Y-105553285D01*
X207741560Y-105517457D01*
X207712848Y-105480562D01*
X207686117Y-105442671D01*
X207661365Y-105403855D01*
X207638594Y-105364185D01*
X207617803Y-105323733D01*
X207598992Y-105282570D01*
X207582161Y-105240767D01*
X207567310Y-105198394D01*
X207554439Y-105155523D01*
X207543548Y-105112226D01*
X207534638Y-105068573D01*
X207527708Y-105024636D01*
X207522757Y-104980485D01*
X207519787Y-104936191D01*
X207518797Y-104891827D01*
X207518806Y-104891417D01*
X207683947Y-104891417D01*
X207685024Y-104933964D01*
X207688219Y-104975953D01*
X207693482Y-105017329D01*
X207700759Y-105058043D01*
X207709999Y-105098040D01*
X207721149Y-105137271D01*
X207734158Y-105175683D01*
X207748974Y-105213224D01*
X207765544Y-105249841D01*
X207783816Y-105285485D01*
X207803738Y-105320101D01*
X207825258Y-105353640D01*
X207848325Y-105386047D01*
X207872885Y-105417273D01*
X207898888Y-105447265D01*
X207926280Y-105475970D01*
X207955010Y-105503338D01*
X207985026Y-105529316D01*
X208016276Y-105553853D01*
X208048707Y-105576896D01*
X208082267Y-105598394D01*
X208116905Y-105618294D01*
X208152569Y-105636546D01*
X208189205Y-105653096D01*
X208226763Y-105667894D01*
X208265190Y-105680887D01*
X208304434Y-105692024D01*
X208344443Y-105701251D01*
X208385165Y-105708519D01*
X208426548Y-105713774D01*
X208468539Y-105716966D01*
X208511087Y-105718041D01*
X208553635Y-105716966D01*
X208595623Y-105713774D01*
X208637000Y-105708519D01*
X208677713Y-105701251D01*
X208717711Y-105692024D01*
X208756942Y-105680887D01*
X208795353Y-105667894D01*
X208832894Y-105653096D01*
X208869512Y-105636546D01*
X208905155Y-105618294D01*
X208939772Y-105598394D01*
X208973310Y-105576896D01*
X209005718Y-105553853D01*
X209006643Y-105553127D01*
X209249871Y-105553127D01*
X211979444Y-105553127D01*
X211998961Y-105553700D01*
X212018298Y-105555407D01*
X212037410Y-105558224D01*
X212056252Y-105562132D01*
X212074779Y-105567108D01*
X212092946Y-105573130D01*
X212110710Y-105580178D01*
X212128025Y-105588230D01*
X212144848Y-105597264D01*
X212161132Y-105607259D01*
X212176834Y-105618193D01*
X212191909Y-105630044D01*
X212206312Y-105642792D01*
X212219999Y-105656415D01*
X212232925Y-105670891D01*
X212245046Y-105686198D01*
X212256238Y-105702195D01*
X212266403Y-105718718D01*
X212275532Y-105735722D01*
X212283619Y-105753157D01*
X212290655Y-105770975D01*
X212296633Y-105789128D01*
X212301543Y-105807569D01*
X212305379Y-105826249D01*
X212308132Y-105845120D01*
X212309795Y-105864134D01*
X212310359Y-105883242D01*
X212309817Y-105902397D01*
X212308161Y-105921551D01*
X212305383Y-105940656D01*
X212301474Y-105959662D01*
X212296427Y-105978523D01*
X211094757Y-109995044D01*
X211137884Y-109975964D01*
X211181464Y-109959082D01*
X211225429Y-109944378D01*
X211269710Y-109931831D01*
X211314240Y-109921422D01*
X211358951Y-109913130D01*
X211403774Y-109906935D01*
X211448642Y-109902816D01*
X211493487Y-109900754D01*
X211538241Y-109900727D01*
X211627203Y-109906701D01*
X211714984Y-109920576D01*
X211801042Y-109942188D01*
X211884832Y-109971377D01*
X211965810Y-110007980D01*
X212043433Y-110051835D01*
X212080816Y-110076431D01*
X212117157Y-110102779D01*
X212152387Y-110130859D01*
X212186439Y-110160650D01*
X212219243Y-110192133D01*
X212250734Y-110225286D01*
X212280841Y-110260091D01*
X212309499Y-110296525D01*
X212336637Y-110334570D01*
X212362190Y-110374205D01*
X213691271Y-105932287D01*
X213711707Y-105857160D01*
X213727564Y-105781425D01*
X213738876Y-105705279D01*
X213745678Y-105628915D01*
X213748003Y-105552529D01*
X213745885Y-105476315D01*
X213739358Y-105400469D01*
X213728457Y-105325186D01*
X213713214Y-105250661D01*
X213693665Y-105177088D01*
X213669842Y-105104662D01*
X213641780Y-105033580D01*
X213609513Y-104964034D01*
X213573075Y-104896221D01*
X213532499Y-104830336D01*
X213487820Y-104766573D01*
X213438842Y-104704377D01*
X213386513Y-104645661D01*
X213331023Y-104590499D01*
X213272563Y-104538965D01*
X213211325Y-104491131D01*
X213147499Y-104447071D01*
X213081276Y-104406859D01*
X213012848Y-104370568D01*
X212942405Y-104338271D01*
X212870139Y-104310043D01*
X212796240Y-104285955D01*
X212720899Y-104266083D01*
X212644308Y-104250499D01*
X212566658Y-104239276D01*
X212488138Y-104232489D01*
X212408942Y-104230210D01*
X209249871Y-104230210D01*
X209280562Y-104266038D01*
X209309274Y-104302933D01*
X209336005Y-104340824D01*
X209360757Y-104379640D01*
X209383528Y-104419310D01*
X209404319Y-104459762D01*
X209423130Y-104500925D01*
X209439961Y-104542729D01*
X209454812Y-104585101D01*
X209467683Y-104627972D01*
X209478573Y-104671269D01*
X209487484Y-104714922D01*
X209494414Y-104758860D01*
X209499364Y-104803011D01*
X209502335Y-104847304D01*
X209503325Y-104891668D01*
X209502335Y-104936033D01*
X209499364Y-104980326D01*
X209494414Y-105024477D01*
X209487484Y-105068414D01*
X209478573Y-105112067D01*
X209467683Y-105155365D01*
X209454812Y-105198235D01*
X209439961Y-105240608D01*
X209423130Y-105282411D01*
X209404319Y-105323575D01*
X209383528Y-105364027D01*
X209360757Y-105403696D01*
X209336005Y-105442512D01*
X209309274Y-105480403D01*
X209280562Y-105517298D01*
X209249871Y-105553127D01*
X209006643Y-105553127D01*
X209036944Y-105529316D01*
X209066935Y-105503338D01*
X209095641Y-105475970D01*
X209123009Y-105447265D01*
X209148987Y-105417273D01*
X209173524Y-105386047D01*
X209196567Y-105353640D01*
X209218065Y-105320101D01*
X209237965Y-105285485D01*
X209256217Y-105249841D01*
X209272767Y-105213224D01*
X209287565Y-105175683D01*
X209300558Y-105137271D01*
X209311694Y-105098040D01*
X209320922Y-105058043D01*
X209328190Y-105017329D01*
X209333445Y-104975953D01*
X209336636Y-104933964D01*
X209337712Y-104891417D01*
X209336636Y-104848869D01*
X209333445Y-104806881D01*
X209328190Y-104765504D01*
X209320922Y-104724791D01*
X209311694Y-104684793D01*
X209300558Y-104645562D01*
X209287565Y-104607150D01*
X209272767Y-104569610D01*
X209256217Y-104532992D01*
X209237965Y-104497349D01*
X209218065Y-104462732D01*
X209196567Y-104429194D01*
X209173524Y-104396786D01*
X209148987Y-104365560D01*
X209123009Y-104335568D01*
X209095641Y-104306863D01*
X209066935Y-104279495D01*
X209036944Y-104253517D01*
X209005718Y-104228980D01*
X208973310Y-104205937D01*
X208939772Y-104184439D01*
X208905155Y-104164539D01*
X208869512Y-104146287D01*
X208832894Y-104129737D01*
X208795353Y-104114939D01*
X208756942Y-104101946D01*
X208717711Y-104090810D01*
X208677713Y-104081582D01*
X208637000Y-104074314D01*
X208595623Y-104069059D01*
X208553635Y-104065868D01*
X208511087Y-104064792D01*
X208468539Y-104065868D01*
X208426548Y-104069059D01*
X208385165Y-104074314D01*
X208344443Y-104081582D01*
X208304434Y-104090810D01*
X208265190Y-104101946D01*
X208226763Y-104114939D01*
X208189205Y-104129737D01*
X208152569Y-104146287D01*
X208116905Y-104164539D01*
X208082267Y-104184439D01*
X208048707Y-104205937D01*
X208016276Y-104228980D01*
X207985026Y-104253517D01*
X207955010Y-104279495D01*
X207926280Y-104306863D01*
X207898888Y-104335568D01*
X207872885Y-104365560D01*
X207848325Y-104396786D01*
X207825258Y-104429194D01*
X207803738Y-104462732D01*
X207783816Y-104497349D01*
X207765544Y-104532992D01*
X207748974Y-104569610D01*
X207734158Y-104607150D01*
X207721149Y-104645562D01*
X207709999Y-104684793D01*
X207700759Y-104724791D01*
X207693482Y-104765504D01*
X207688219Y-104806881D01*
X207685024Y-104848869D01*
X207683947Y-104891417D01*
X207518806Y-104891417D01*
X207519787Y-104847463D01*
X207522757Y-104803169D01*
X207527708Y-104759019D01*
X207534638Y-104715081D01*
X207543548Y-104671428D01*
X207554439Y-104628131D01*
X207567310Y-104585260D01*
X207582161Y-104542887D01*
X207598992Y-104501084D01*
X207617803Y-104459921D01*
X207638594Y-104419469D01*
X207661365Y-104379799D01*
X207686117Y-104340983D01*
X207712848Y-104303092D01*
X207741560Y-104266197D01*
X207772251Y-104230368D01*
X205507167Y-104230368D01*
X205371219Y-104233818D01*
X205237032Y-104244054D01*
X205104773Y-104260910D01*
X204974611Y-104284218D01*
X204846713Y-104313811D01*
X204721246Y-104349521D01*
X204598378Y-104391180D01*
X204478277Y-104438620D01*
X204361109Y-104491676D01*
X204247043Y-104550178D01*
X204136246Y-104613959D01*
X204028885Y-104682853D01*
X203925128Y-104756690D01*
X203825143Y-104835304D01*
X203729097Y-104918528D01*
X203637158Y-105006193D01*
X203549493Y-105098132D01*
X203466269Y-105194178D01*
X203387655Y-105294163D01*
X203313818Y-105397920D01*
X203244924Y-105505281D01*
X203181143Y-105616078D01*
X203122641Y-105730144D01*
X203069586Y-105847312D01*
X203022145Y-105967413D01*
X202980486Y-106090281D01*
X202944776Y-106215748D01*
X202915184Y-106343646D01*
X202891876Y-106473808D01*
X202875019Y-106606066D01*
X202864783Y-106740253D01*
X202861334Y-106876202D01*
X202864783Y-107012150D01*
X202875019Y-107146337D01*
X202891876Y-107278595D01*
X202915184Y-107408757D01*
X202944776Y-107536655D01*
X202980486Y-107662122D01*
X203022145Y-107784990D01*
X203069586Y-107905092D01*
X203122641Y-108022259D01*
X203181143Y-108136325D01*
X203244924Y-108247123D01*
X203313818Y-108354483D01*
X203387655Y-108458240D01*
X203466269Y-108558225D01*
X203549493Y-108654271D01*
X203637158Y-108746210D01*
X203729097Y-108833876D01*
X203825143Y-108917099D01*
X203925128Y-108995713D01*
X204028885Y-109069551D01*
X204136246Y-109138444D01*
X204247043Y-109202226D01*
X204361109Y-109260728D01*
X204478277Y-109313783D01*
X204598378Y-109361224D01*
X204721246Y-109402883D01*
X204846713Y-109438593D01*
X204974611Y-109468185D01*
X205104773Y-109491493D01*
X205237032Y-109508349D01*
X205371219Y-109518586D01*
X205507167Y-109522035D01*
X205865175Y-109522035D01*
X205933252Y-109523757D01*
X206000436Y-109528865D01*
X206066643Y-109537278D01*
X206131790Y-109548912D01*
X206195794Y-109563685D01*
X206258572Y-109581512D01*
X206320040Y-109602310D01*
X206380116Y-109625997D01*
X206438717Y-109652490D01*
X206495758Y-109681705D01*
X206551158Y-109713560D01*
X206604833Y-109747970D01*
X206656700Y-109784854D01*
X206706675Y-109824127D01*
X206754676Y-109865707D01*
X206800620Y-109909511D01*
X206844424Y-109955455D01*
X206886003Y-110003457D01*
X206925276Y-110053432D01*
X206962160Y-110105299D01*
X206996570Y-110158974D01*
X207028424Y-110214374D01*
X207057638Y-110271415D01*
X207084131Y-110330015D01*
X207107818Y-110390091D01*
X207128616Y-110451559D01*
X207146443Y-110514336D01*
X207161214Y-110578340D01*
X207172848Y-110643486D01*
X207181261Y-110709692D01*
X207186370Y-110776875D01*
X207188091Y-110844952D01*
X207186370Y-110913028D01*
X207181261Y-110980211D01*
X207172849Y-111046417D01*
X207161215Y-111111564D01*
X207146443Y-111175567D01*
X207128617Y-111238344D01*
X207107819Y-111299812D01*
X207084133Y-111359888D01*
X207057641Y-111418488D01*
X207028426Y-111475529D01*
X206996573Y-111530929D01*
X206962163Y-111584604D01*
X206925280Y-111636471D01*
X206886008Y-111686447D01*
X206844428Y-111734448D01*
X206800625Y-111780392D01*
X206754682Y-111824196D01*
X206706681Y-111865776D01*
X206656705Y-111905049D01*
X206604839Y-111941933D01*
X206551164Y-111976343D01*
X206495764Y-112008198D01*
X206438722Y-112037413D01*
X206380122Y-112063906D01*
X206320046Y-112087593D01*
X206258577Y-112108392D01*
X206195799Y-112126219D01*
X206131794Y-112140991D01*
X206066646Y-112152625D01*
X206000439Y-112161038D01*
X205933254Y-112166147D01*
X205865175Y-112167868D01*
X202137864Y-112167868D01*
X202122301Y-112097760D01*
X202114907Y-112062475D01*
X202111414Y-112044730D01*
X202108098Y-112026898D01*
X202089969Y-111917063D01*
X202074826Y-111806803D01*
X202062371Y-111696208D01*
X202052305Y-111585368D01*
X202044330Y-111474375D01*
X202038147Y-111363318D01*
X202033457Y-111252289D01*
X202029963Y-111141377D01*
X202027563Y-111039610D01*
X202025796Y-110937782D01*
X202023762Y-110734158D01*
X202022985Y-110492730D01*
X202022935Y-110251292D01*
X202014667Y-108402940D01*
X202014667Y-105180660D01*
X202015973Y-105053951D01*
X202018921Y-104919937D01*
X202022054Y-104785921D01*
X202023915Y-104659205D01*
X202025937Y-104456002D01*
X202027692Y-104354405D01*
X202030080Y-104252818D01*
X202033579Y-104142092D01*
X202038270Y-104031235D01*
X202044452Y-103920342D01*
X202052424Y-103809507D01*
X202062483Y-103698826D01*
X202074928Y-103588392D01*
X202090058Y-103478301D01*
X202108170Y-103368647D01*
X202129778Y-103258499D01*
X202154713Y-103150116D01*
X202183180Y-103043332D01*
X202215381Y-102937983D01*
X202251520Y-102833903D01*
X202291800Y-102730928D01*
X202336424Y-102628892D01*
X202385597Y-102527629D01*
X202411378Y-102478328D01*
X202438117Y-102429563D01*
X202465804Y-102381350D01*
X202494427Y-102333703D01*
X202523976Y-102286636D01*
X202554441Y-102240165D01*
X202585810Y-102194305D01*
X202618073Y-102149069D01*
X202651219Y-102104474D01*
X202685237Y-102060533D01*
X202720116Y-102017262D01*
X202755846Y-101974674D01*
X202792416Y-101932786D01*
X202829815Y-101891611D01*
X202868033Y-101851165D01*
X202907058Y-101811462D01*
X202946868Y-101772523D01*
X202987426Y-101734387D01*
X203028717Y-101697065D01*
X203070726Y-101660568D01*
X203113437Y-101624907D01*
X203156836Y-101590093D01*
X203200907Y-101556138D01*
X203245635Y-101523053D01*
X203291004Y-101490848D01*
X203337001Y-101459536D01*
X203383609Y-101429128D01*
X203430813Y-101399634D01*
X203478599Y-101371066D01*
X203526951Y-101343435D01*
X203575853Y-101316752D01*
X203625292Y-101291029D01*
X203675928Y-101265938D01*
X203726737Y-101241999D01*
X203777740Y-101219186D01*
X203828956Y-101197475D01*
X203932116Y-101157265D01*
X204036383Y-101121173D01*
X204141923Y-101089007D01*
X204248902Y-101060571D01*
X204357487Y-101035672D01*
X204467844Y-101014115D01*
X204577813Y-100996042D01*
X204688224Y-100980977D01*
X204798981Y-100968611D01*
X204909987Y-100958638D01*
X205021147Y-100950752D01*
X205132363Y-100944644D01*
X205354582Y-100936538D01*
X205456422Y-100934146D01*
X205558269Y-100932395D01*
X205761987Y-100930373D01*
X206003963Y-100929490D01*
X206245949Y-100929346D01*
X208081073Y-100922667D01*
X209478482Y-100922667D01*
X211347010Y-100929346D01*
X211588218Y-100929490D01*
X211829425Y-100930373D01*
X212032884Y-100932396D01*
X212134632Y-100934146D01*
X212236314Y-100936538D01*
X212458013Y-100944653D01*
X212568973Y-100950769D01*
X212679878Y-100958663D01*
X212790631Y-100968640D01*
X212901133Y-100981004D01*
X213011289Y-100996061D01*
X213121002Y-101014115D01*
X213231215Y-101035673D01*
X213339666Y-101060564D01*
X213446517Y-101088988D01*
X213551933Y-101121143D01*
X213656079Y-101157226D01*
X213759119Y-101197436D01*
X213861216Y-101241971D01*
X213962535Y-101291029D01*
X214011862Y-101316750D01*
X214060642Y-101343431D01*
X214108864Y-101371062D01*
X214156513Y-101399631D01*
X214203575Y-101429127D01*
X214250039Y-101459537D01*
X214295888Y-101490852D01*
X214341111Y-101523058D01*
X214385694Y-101556146D01*
X214429623Y-101590103D01*
X214472885Y-101624918D01*
X214515465Y-101660579D01*
X214557352Y-101697076D01*
X214598530Y-101734396D01*
X214638987Y-101772529D01*
X214678709Y-101811462D01*
X214717666Y-101851167D01*
X214755814Y-101891614D01*
X214793142Y-101932788D01*
X214829642Y-101974674D01*
X214865301Y-102017259D01*
X214900109Y-102060527D01*
X214934057Y-102104464D01*
X214967133Y-102149056D01*
X214999328Y-102194288D01*
X215030630Y-102240146D01*
X215061031Y-102286616D01*
X215090518Y-102333683D01*
X215119082Y-102381332D01*
X215146712Y-102429549D01*
X215173399Y-102478319D01*
X215199131Y-102527629D01*
X215224245Y-102578148D01*
X215248215Y-102628838D01*
X215271062Y-102679720D01*
X215292811Y-102730814D01*
X215333104Y-102833724D01*
X215369280Y-102937735D01*
X215401525Y-103043015D01*
X215430025Y-103149729D01*
X215454966Y-103258046D01*
X215476534Y-103368131D01*
X215494188Y-103475033D01*
X215508948Y-103582359D01*
X215521106Y-103690020D01*
X215530956Y-103797925D01*
X215538790Y-103905987D01*
X215544902Y-104014114D01*
X215553131Y-104230210D01*
X213106622Y-104230210D01*
X213152492Y-104254892D01*
X213197262Y-104281031D01*
X213240907Y-104308589D01*
X213283405Y-104337527D01*
X213324731Y-104367807D01*
X213364863Y-104399390D01*
X213403778Y-104432240D01*
X213441452Y-104466316D01*
X213477861Y-104501583D01*
X213512983Y-104538000D01*
X213546794Y-104575530D01*
X213579271Y-104614135D01*
X213610390Y-104653777D01*
X213640128Y-104694417D01*
X213668462Y-104736017D01*
X213695369Y-104778539D01*
X213720825Y-104821945D01*
X213744806Y-104866196D01*
X213767291Y-104911256D01*
X213788254Y-104957084D01*
X213807673Y-105003643D01*
X213825525Y-105050895D01*
X213841786Y-105098802D01*
X213856433Y-105147326D01*
X213869442Y-105196428D01*
X213880791Y-105246070D01*
X213890456Y-105296214D01*
X213898413Y-105346822D01*
X213904639Y-105397855D01*
X213909112Y-105449276D01*
X213911807Y-105501046D01*
X213912702Y-105553127D01*
X215561333Y-105553127D01*
X215561333Y-110251412D01*
X215561151Y-110492877D01*
X215560274Y-110734342D01*
X215558273Y-110937797D01*
X215556535Y-111039515D01*
X215554189Y-111141232D01*
X215546036Y-111363169D01*
X215539920Y-111474268D01*
X215532030Y-111585317D01*
X215522057Y-111696213D01*
X215509690Y-111806853D01*
X215494619Y-111917134D01*
X215476534Y-112026952D01*
X215454966Y-112137255D01*
X215430025Y-112245779D01*
X215401525Y-112352693D01*
X215369280Y-112458164D01*
X215333104Y-112562361D01*
X215292811Y-112665452D01*
X215248215Y-112767604D01*
X215199131Y-112868987D01*
X215173398Y-112918363D01*
X215146711Y-112967200D01*
X215119079Y-113015486D01*
X215090512Y-113063204D01*
X215061023Y-113110340D01*
X215030620Y-113156880D01*
X214999315Y-113202808D01*
X214967118Y-113248109D01*
X214934040Y-113292769D01*
X214900092Y-113336773D01*
X214865283Y-113380107D01*
X214829625Y-113422754D01*
X214793128Y-113464702D01*
X214755802Y-113505934D01*
X214717659Y-113546436D01*
X214678709Y-113586193D01*
X214638985Y-113625185D01*
X214598528Y-113663369D01*
X214557350Y-113700735D01*
X214515465Y-113737271D01*
X214472887Y-113772968D01*
X214429627Y-113807813D01*
X214385701Y-113841798D01*
X214341121Y-113874910D01*
X214295900Y-113907140D01*
X214250052Y-113938476D01*
X214203590Y-113968908D01*
X214156528Y-113998425D01*
X214108877Y-114027016D01*
X214060653Y-114054672D01*
X214011868Y-114081380D01*
X213962535Y-114107131D01*
X213911991Y-114132266D01*
X213861273Y-114156247D01*
X213810361Y-114179100D01*
X213759235Y-114200848D01*
X213656258Y-114241127D01*
X213552177Y-114277280D01*
X213446827Y-114309502D01*
X213340043Y-114337988D01*
X213231662Y-114362934D01*
X213121517Y-114384534D01*
X213011750Y-114402619D01*
X212901530Y-114417690D01*
X212790957Y-114430057D01*
X212680131Y-114440030D01*
X212569154Y-114447920D01*
X212458125Y-114454036D01*
X212236314Y-114462189D01*
X212134632Y-114464535D01*
X212032884Y-114466273D01*
X211829425Y-114468274D01*
X211588218Y-114469201D01*
X211347010Y-114469333D01*
X211136878Y-114469333D01*
X211938340Y-111790626D01*
X211895213Y-111809704D01*
X211851633Y-111826584D01*
X211807668Y-111841286D01*
X211763386Y-111853831D01*
X211718856Y-111864239D01*
X211674145Y-111872531D01*
X211629322Y-111878725D01*
X211584453Y-111882844D01*
X211539608Y-111884906D01*
X211494854Y-111884933D01*
X211405891Y-111878960D01*
X211318109Y-111865087D01*
X211232050Y-111843476D01*
X211148260Y-111814289D01*
X211067281Y-111777688D01*
X210989658Y-111733835D01*
X210952275Y-111709240D01*
X210915934Y-111682892D01*
X210880705Y-111654813D01*
X210846653Y-111625022D01*
X210813849Y-111593539D01*
X210782359Y-111560385D01*
X210752252Y-111525581D01*
X210723596Y-111489146D01*
X210696458Y-111451100D01*
X210670907Y-111411464D01*
X209768757Y-114427264D01*
X209757460Y-114469333D01*
X206245936Y-114469333D01*
X206003882Y-114469284D01*
X205761828Y-114468539D01*
X205558205Y-114466522D01*
X205456426Y-114464744D01*
X205354621Y-114462322D01*
X205132495Y-114454204D01*
X205021325Y-114448069D01*
X204910214Y-114440146D01*
X204799256Y-114430134D01*
X204688548Y-114417729D01*
X204578187Y-114402630D01*
X204468267Y-114384534D01*
X204357829Y-114362977D01*
X204249145Y-114338063D01*
X204142055Y-114309597D01*
X204036398Y-114277386D01*
X203932015Y-114241233D01*
X203828745Y-114200945D01*
X203726430Y-114156327D01*
X203624908Y-114107184D01*
X203575484Y-114081429D01*
X203526605Y-114054717D01*
X203478284Y-114027060D01*
X203430535Y-113998467D01*
X203383373Y-113968950D01*
X203336810Y-113938519D01*
X203290861Y-113907185D01*
X203245539Y-113874958D01*
X203200859Y-113841849D01*
X203156834Y-113807869D01*
X203113478Y-113773028D01*
X203070806Y-113737337D01*
X203028830Y-113700807D01*
X202987565Y-113663448D01*
X202947025Y-113625271D01*
X202907223Y-113586286D01*
X202895793Y-113574678D01*
X202884543Y-113562914D01*
X202873435Y-113551025D01*
X202862434Y-113539041D01*
X202818752Y-113490785D01*
X205865175Y-113490785D01*
X206001123Y-113487335D01*
X206135310Y-113477099D01*
X206267568Y-113460243D01*
X206397730Y-113436935D01*
X206525628Y-113407342D01*
X206651095Y-113371632D01*
X206773963Y-113329974D01*
X206894065Y-113282533D01*
X207011232Y-113229477D01*
X207125299Y-113170975D01*
X207236096Y-113107194D01*
X207343456Y-113038301D01*
X207447213Y-112964463D01*
X207547198Y-112885849D01*
X207643244Y-112802625D01*
X207735183Y-112714960D01*
X207822849Y-112623021D01*
X207906072Y-112526975D01*
X207984686Y-112426990D01*
X208058524Y-112323233D01*
X208127417Y-112215872D01*
X208191199Y-112105075D01*
X208249701Y-111991009D01*
X208302756Y-111873842D01*
X208350197Y-111753740D01*
X208391856Y-111630872D01*
X208427565Y-111505405D01*
X208457158Y-111377507D01*
X208480466Y-111247345D01*
X208497322Y-111115087D01*
X208507559Y-110980900D01*
X208509786Y-110893092D01*
X210689918Y-110893092D01*
X210690993Y-110935640D01*
X210694185Y-110977628D01*
X210699440Y-111019005D01*
X210706707Y-111059718D01*
X210715935Y-111099716D01*
X210727072Y-111138947D01*
X210740065Y-111177359D01*
X210754862Y-111214899D01*
X210771413Y-111251517D01*
X210789664Y-111287161D01*
X210809565Y-111321777D01*
X210831063Y-111355316D01*
X210854106Y-111387723D01*
X210878642Y-111418949D01*
X210904621Y-111448941D01*
X210931988Y-111477647D01*
X210960694Y-111505015D01*
X210990686Y-111530993D01*
X211021911Y-111555529D01*
X211054319Y-111578572D01*
X211087858Y-111600070D01*
X211122474Y-111619971D01*
X211158117Y-111638222D01*
X211194735Y-111654773D01*
X211232276Y-111669571D01*
X211270688Y-111682564D01*
X211309918Y-111693700D01*
X211349916Y-111702928D01*
X211390630Y-111710196D01*
X211432006Y-111715451D01*
X211473994Y-111718642D01*
X211516542Y-111719717D01*
X211559089Y-111718642D01*
X211601076Y-111715451D01*
X211642452Y-111710196D01*
X211683165Y-111702928D01*
X211723162Y-111693700D01*
X211762393Y-111682564D01*
X211800805Y-111669571D01*
X211838345Y-111654773D01*
X211874964Y-111638222D01*
X211910607Y-111619971D01*
X211945224Y-111600070D01*
X211978763Y-111578572D01*
X212011172Y-111555529D01*
X212042398Y-111530993D01*
X212072391Y-111505015D01*
X212101097Y-111477647D01*
X212128466Y-111448941D01*
X212154445Y-111418949D01*
X212178983Y-111387723D01*
X212202027Y-111355316D01*
X212223526Y-111321777D01*
X212243427Y-111287161D01*
X212261680Y-111251517D01*
X212278231Y-111214899D01*
X212293030Y-111177359D01*
X212306023Y-111138947D01*
X212317160Y-111099716D01*
X212326389Y-111059718D01*
X212333657Y-111019005D01*
X212338913Y-110977628D01*
X212342104Y-110935640D01*
X212343180Y-110893092D01*
X212342104Y-110850543D01*
X212338913Y-110808551D01*
X212333657Y-110767167D01*
X212326389Y-110726444D01*
X212317160Y-110686435D01*
X212306023Y-110647190D01*
X212293030Y-110608763D01*
X212278231Y-110571205D01*
X212261680Y-110534568D01*
X212243427Y-110498905D01*
X212223526Y-110464267D01*
X212202027Y-110430706D01*
X212178983Y-110398275D01*
X212154445Y-110367026D01*
X212128466Y-110337011D01*
X212101097Y-110308281D01*
X212072391Y-110280889D01*
X212042398Y-110254887D01*
X212011172Y-110230326D01*
X211978763Y-110207260D01*
X211945224Y-110185740D01*
X211910607Y-110165818D01*
X211874964Y-110147547D01*
X211838345Y-110130977D01*
X211800805Y-110116162D01*
X211762393Y-110103154D01*
X211723162Y-110092004D01*
X211683165Y-110082764D01*
X211642452Y-110075487D01*
X211601076Y-110070225D01*
X211559089Y-110067029D01*
X211516542Y-110065952D01*
X211473994Y-110067029D01*
X211432006Y-110070225D01*
X211390630Y-110075487D01*
X211349916Y-110082764D01*
X211309918Y-110092004D01*
X211270688Y-110103154D01*
X211232276Y-110116162D01*
X211194735Y-110130977D01*
X211158117Y-110147547D01*
X211122474Y-110165818D01*
X211087858Y-110185740D01*
X211054319Y-110207260D01*
X211021911Y-110230326D01*
X210990686Y-110254887D01*
X210960694Y-110280889D01*
X210931988Y-110308281D01*
X210904621Y-110337011D01*
X210878642Y-110367026D01*
X210854106Y-110398275D01*
X210831063Y-110430706D01*
X210809565Y-110464267D01*
X210789664Y-110498905D01*
X210771413Y-110534568D01*
X210754862Y-110571205D01*
X210740065Y-110608763D01*
X210727072Y-110647190D01*
X210715935Y-110686435D01*
X210706707Y-110726444D01*
X210699440Y-110767167D01*
X210694185Y-110808551D01*
X210690993Y-110850543D01*
X210689918Y-110893092D01*
X208509786Y-110893092D01*
X208511008Y-110844952D01*
X208507559Y-110709003D01*
G37*
G36*
X215561333Y-105141620D02*
G01*
X215561151Y-104900413D01*
X215560274Y-104659205D01*
X215558273Y-104455982D01*
X215556535Y-104354390D01*
X215554189Y-104252818D01*
X215553931Y-104247174D01*
X215553611Y-104241519D01*
X215553315Y-104235861D01*
X215553204Y-104233034D01*
X215553131Y-104230210D01*
X215561333Y-104230210D01*
X215561333Y-105141620D01*
G37*
D11*
X207137142Y-118562380D02*
X206565714Y-118562380D01*
X206851428Y-118562380D02*
X206851428Y-117562380D01*
X206756190Y-117705238D01*
X206660952Y-117800476D01*
X206565714Y-117848095D01*
X207565714Y-118467142D02*
X207613333Y-118514761D01*
X207565714Y-118562380D01*
X207518095Y-118514761D01*
X207565714Y-118467142D01*
X207565714Y-118562380D01*
X208565714Y-118562380D02*
X207994285Y-118562380D01*
X208280000Y-118562380D02*
X208280000Y-117562380D01*
X208184761Y-117705238D01*
X208089523Y-117800476D01*
X207994285Y-117848095D01*
X208994285Y-118467142D02*
X209041904Y-118514761D01*
X208994285Y-118562380D01*
X208946666Y-118514761D01*
X208994285Y-118467142D01*
X208994285Y-118562380D01*
X209660952Y-117562380D02*
X209756190Y-117562380D01*
X209851428Y-117610000D01*
X209899047Y-117657619D01*
X209946666Y-117752857D01*
X209994285Y-117943333D01*
X209994285Y-118181428D01*
X209946666Y-118371904D01*
X209899047Y-118467142D01*
X209851428Y-118514761D01*
X209756190Y-118562380D01*
X209660952Y-118562380D01*
X209565714Y-118514761D01*
X209518095Y-118467142D01*
X209470476Y-118371904D01*
X209422857Y-118181428D01*
X209422857Y-117943333D01*
X209470476Y-117752857D01*
X209518095Y-117657619D01*
X209565714Y-117610000D01*
X209660952Y-117562380D01*
X201129285Y-116609761D02*
X201272142Y-116657380D01*
X201510238Y-116657380D01*
X201605476Y-116609761D01*
X201653095Y-116562142D01*
X201700714Y-116466904D01*
X201700714Y-116371666D01*
X201653095Y-116276428D01*
X201605476Y-116228809D01*
X201510238Y-116181190D01*
X201319761Y-116133571D01*
X201224523Y-116085952D01*
X201176904Y-116038333D01*
X201129285Y-115943095D01*
X201129285Y-115847857D01*
X201176904Y-115752619D01*
X201224523Y-115705000D01*
X201319761Y-115657380D01*
X201557857Y-115657380D01*
X201700714Y-115705000D01*
X202129285Y-116657380D02*
X202129285Y-115657380D01*
X202557857Y-116657380D02*
X202557857Y-116133571D01*
X202510238Y-116038333D01*
X202415000Y-115990714D01*
X202272142Y-115990714D01*
X202176904Y-116038333D01*
X202129285Y-116085952D01*
X203462619Y-115990714D02*
X203462619Y-116657380D01*
X203034047Y-115990714D02*
X203034047Y-116514523D01*
X203081666Y-116609761D01*
X203176904Y-116657380D01*
X203319761Y-116657380D01*
X203415000Y-116609761D01*
X203462619Y-116562142D01*
X203795952Y-115990714D02*
X204176904Y-115990714D01*
X203938809Y-115657380D02*
X203938809Y-116514523D01*
X203986428Y-116609761D01*
X204081666Y-116657380D01*
X204176904Y-116657380D01*
X204367380Y-115990714D02*
X204748333Y-115990714D01*
X204510238Y-115657380D02*
X204510238Y-116514523D01*
X204557857Y-116609761D01*
X204653095Y-116657380D01*
X204748333Y-116657380D01*
X205224523Y-116657380D02*
X205129285Y-116609761D01*
X205081666Y-116514523D01*
X205081666Y-115657380D01*
X205986428Y-116609761D02*
X205891190Y-116657380D01*
X205700714Y-116657380D01*
X205605476Y-116609761D01*
X205557857Y-116514523D01*
X205557857Y-116133571D01*
X205605476Y-116038333D01*
X205700714Y-115990714D01*
X205891190Y-115990714D01*
X205986428Y-116038333D01*
X206034047Y-116133571D01*
X206034047Y-116228809D01*
X205557857Y-116324047D01*
X207081666Y-115657380D02*
X207653095Y-115657380D01*
X207367380Y-116657380D02*
X207367380Y-115657380D01*
X207986428Y-116657380D02*
X207986428Y-115990714D01*
X207986428Y-116181190D02*
X208034047Y-116085952D01*
X208081666Y-116038333D01*
X208176904Y-115990714D01*
X208272142Y-115990714D01*
X209034047Y-116657380D02*
X209034047Y-116133571D01*
X208986428Y-116038333D01*
X208891190Y-115990714D01*
X208700714Y-115990714D01*
X208605476Y-116038333D01*
X209034047Y-116609761D02*
X208938809Y-116657380D01*
X208700714Y-116657380D01*
X208605476Y-116609761D01*
X208557857Y-116514523D01*
X208557857Y-116419285D01*
X208605476Y-116324047D01*
X208700714Y-116276428D01*
X208938809Y-116276428D01*
X209034047Y-116228809D01*
X209938809Y-116609761D02*
X209843571Y-116657380D01*
X209653095Y-116657380D01*
X209557857Y-116609761D01*
X209510238Y-116562142D01*
X209462619Y-116466904D01*
X209462619Y-116181190D01*
X209510238Y-116085952D01*
X209557857Y-116038333D01*
X209653095Y-115990714D01*
X209843571Y-115990714D01*
X209938809Y-116038333D01*
X210367380Y-116657380D02*
X210367380Y-115657380D01*
X210462619Y-116276428D02*
X210748333Y-116657380D01*
X210748333Y-115990714D02*
X210367380Y-116371666D01*
X211557857Y-116609761D02*
X211462619Y-116657380D01*
X211272142Y-116657380D01*
X211176904Y-116609761D01*
X211129285Y-116514523D01*
X211129285Y-116133571D01*
X211176904Y-116038333D01*
X211272142Y-115990714D01*
X211462619Y-115990714D01*
X211557857Y-116038333D01*
X211605476Y-116133571D01*
X211605476Y-116228809D01*
X211129285Y-116324047D01*
X212034047Y-116657380D02*
X212034047Y-115990714D01*
X212034047Y-116181190D02*
X212081666Y-116085952D01*
X212129285Y-116038333D01*
X212224523Y-115990714D01*
X212319761Y-115990714D01*
X213415000Y-116657380D02*
X213415000Y-115657380D01*
X213986428Y-116657380D01*
X213986428Y-115657380D01*
X214605476Y-116657380D02*
X214510238Y-116609761D01*
X214462619Y-116562142D01*
X214415000Y-116466904D01*
X214415000Y-116181190D01*
X214462619Y-116085952D01*
X214510238Y-116038333D01*
X214605476Y-115990714D01*
X214748333Y-115990714D01*
X214843571Y-116038333D01*
X214891190Y-116085952D01*
X214938809Y-116181190D01*
X214938809Y-116466904D01*
X214891190Y-116562142D01*
X214843571Y-116609761D01*
X214748333Y-116657380D01*
X214605476Y-116657380D01*
X215795952Y-116657380D02*
X215795952Y-115657380D01*
X215795952Y-116609761D02*
X215700714Y-116657380D01*
X215510238Y-116657380D01*
X215415000Y-116609761D01*
X215367380Y-116562142D01*
X215319761Y-116466904D01*
X215319761Y-116181190D01*
X215367380Y-116085952D01*
X215415000Y-116038333D01*
X215510238Y-115990714D01*
X215700714Y-115990714D01*
X215795952Y-116038333D01*
X216653095Y-116609761D02*
X216557857Y-116657380D01*
X216367380Y-116657380D01*
X216272142Y-116609761D01*
X216224523Y-116514523D01*
X216224523Y-116133571D01*
X216272142Y-116038333D01*
X216367380Y-115990714D01*
X216557857Y-115990714D01*
X216653095Y-116038333D01*
X216700714Y-116133571D01*
X216700714Y-116228809D01*
X216224523Y-116324047D01*
%TO.C,J4*%
X132797074Y-103965333D02*
X133511360Y-103965333D01*
X133654217Y-104012952D01*
X133749455Y-104108190D01*
X133797074Y-104251047D01*
X133797074Y-104346285D01*
X133130408Y-103060571D02*
X133797074Y-103060571D01*
X132749455Y-103298666D02*
X133463741Y-103536761D01*
X133463741Y-102917714D01*
%TO.C,SW4*%
X185991666Y-78954261D02*
X186134523Y-79001880D01*
X186372619Y-79001880D01*
X186467857Y-78954261D01*
X186515476Y-78906642D01*
X186563095Y-78811404D01*
X186563095Y-78716166D01*
X186515476Y-78620928D01*
X186467857Y-78573309D01*
X186372619Y-78525690D01*
X186182142Y-78478071D01*
X186086904Y-78430452D01*
X186039285Y-78382833D01*
X185991666Y-78287595D01*
X185991666Y-78192357D01*
X186039285Y-78097119D01*
X186086904Y-78049500D01*
X186182142Y-78001880D01*
X186420238Y-78001880D01*
X186563095Y-78049500D01*
X186896428Y-78001880D02*
X187134523Y-79001880D01*
X187325000Y-78287595D01*
X187515476Y-79001880D01*
X187753571Y-78001880D01*
X188563095Y-78335214D02*
X188563095Y-79001880D01*
X188325000Y-77954261D02*
X188086904Y-78668547D01*
X188705952Y-78668547D01*
X187325000Y-80414880D02*
X187325000Y-80652976D01*
X187086904Y-80557738D02*
X187325000Y-80652976D01*
X187563095Y-80557738D01*
X187182142Y-80843452D02*
X187325000Y-80652976D01*
X187467857Y-80843452D01*
%TO.C,SW9*%
X138366666Y-110704261D02*
X138509523Y-110751880D01*
X138747619Y-110751880D01*
X138842857Y-110704261D01*
X138890476Y-110656642D01*
X138938095Y-110561404D01*
X138938095Y-110466166D01*
X138890476Y-110370928D01*
X138842857Y-110323309D01*
X138747619Y-110275690D01*
X138557142Y-110228071D01*
X138461904Y-110180452D01*
X138414285Y-110132833D01*
X138366666Y-110037595D01*
X138366666Y-109942357D01*
X138414285Y-109847119D01*
X138461904Y-109799500D01*
X138557142Y-109751880D01*
X138795238Y-109751880D01*
X138938095Y-109799500D01*
X139271428Y-109751880D02*
X139509523Y-110751880D01*
X139700000Y-110037595D01*
X139890476Y-110751880D01*
X140128571Y-109751880D01*
X140557142Y-110751880D02*
X140747619Y-110751880D01*
X140842857Y-110704261D01*
X140890476Y-110656642D01*
X140985714Y-110513785D01*
X141033333Y-110323309D01*
X141033333Y-109942357D01*
X140985714Y-109847119D01*
X140938095Y-109799500D01*
X140842857Y-109751880D01*
X140652380Y-109751880D01*
X140557142Y-109799500D01*
X140509523Y-109847119D01*
X140461904Y-109942357D01*
X140461904Y-110180452D01*
X140509523Y-110275690D01*
X140557142Y-110323309D01*
X140652380Y-110370928D01*
X140842857Y-110370928D01*
X140938095Y-110323309D01*
X140985714Y-110275690D01*
X141033333Y-110180452D01*
X139700000Y-112164880D02*
X139700000Y-112402976D01*
X139461904Y-112307738D02*
X139700000Y-112402976D01*
X139938095Y-112307738D01*
X139557142Y-112593452D02*
X139700000Y-112402976D01*
X139842857Y-112593452D01*
%TO.C,J2*%
X132797074Y-98885333D02*
X133511360Y-98885333D01*
X133654217Y-98932952D01*
X133749455Y-99028190D01*
X133797074Y-99171047D01*
X133797074Y-99266285D01*
X132892313Y-98456761D02*
X132844694Y-98409142D01*
X132797074Y-98313904D01*
X132797074Y-98075809D01*
X132844694Y-97980571D01*
X132892313Y-97932952D01*
X132987551Y-97885333D01*
X133082789Y-97885333D01*
X133225646Y-97932952D01*
X133797074Y-98504380D01*
X133797074Y-97885333D01*
%TO.C,J3*%
X132797074Y-101425333D02*
X133511360Y-101425333D01*
X133654217Y-101472952D01*
X133749455Y-101568190D01*
X133797074Y-101711047D01*
X133797074Y-101806285D01*
X132797074Y-101044380D02*
X132797074Y-100425333D01*
X133178027Y-100758666D01*
X133178027Y-100615809D01*
X133225646Y-100520571D01*
X133273265Y-100472952D01*
X133368503Y-100425333D01*
X133606598Y-100425333D01*
X133701836Y-100472952D01*
X133749455Y-100520571D01*
X133797074Y-100615809D01*
X133797074Y-100901523D01*
X133749455Y-100996761D01*
X133701836Y-101044380D01*
%TO.C,SW2*%
X154241666Y-78954261D02*
X154384523Y-79001880D01*
X154622619Y-79001880D01*
X154717857Y-78954261D01*
X154765476Y-78906642D01*
X154813095Y-78811404D01*
X154813095Y-78716166D01*
X154765476Y-78620928D01*
X154717857Y-78573309D01*
X154622619Y-78525690D01*
X154432142Y-78478071D01*
X154336904Y-78430452D01*
X154289285Y-78382833D01*
X154241666Y-78287595D01*
X154241666Y-78192357D01*
X154289285Y-78097119D01*
X154336904Y-78049500D01*
X154432142Y-78001880D01*
X154670238Y-78001880D01*
X154813095Y-78049500D01*
X155146428Y-78001880D02*
X155384523Y-79001880D01*
X155575000Y-78287595D01*
X155765476Y-79001880D01*
X156003571Y-78001880D01*
X156336904Y-78097119D02*
X156384523Y-78049500D01*
X156479761Y-78001880D01*
X156717857Y-78001880D01*
X156813095Y-78049500D01*
X156860714Y-78097119D01*
X156908333Y-78192357D01*
X156908333Y-78287595D01*
X156860714Y-78430452D01*
X156289285Y-79001880D01*
X156908333Y-79001880D01*
X155575000Y-80414880D02*
X155575000Y-80652976D01*
X155336904Y-80557738D02*
X155575000Y-80652976D01*
X155813095Y-80557738D01*
X155432142Y-80843452D02*
X155575000Y-80652976D01*
X155717857Y-80843452D01*
%TO.C,J5*%
X132797074Y-106505333D02*
X133511360Y-106505333D01*
X133654217Y-106552952D01*
X133749455Y-106648190D01*
X133797074Y-106791047D01*
X133797074Y-106886285D01*
X132797074Y-105552952D02*
X132797074Y-106029142D01*
X133273265Y-106076761D01*
X133225646Y-106029142D01*
X133178027Y-105933904D01*
X133178027Y-105695809D01*
X133225646Y-105600571D01*
X133273265Y-105552952D01*
X133368503Y-105505333D01*
X133606598Y-105505333D01*
X133701836Y-105552952D01*
X133749455Y-105600571D01*
X133797074Y-105695809D01*
X133797074Y-105933904D01*
X133749455Y-106029142D01*
X133701836Y-106076761D01*
%TO.C,SW10*%
X153765476Y-110704261D02*
X153908333Y-110751880D01*
X154146428Y-110751880D01*
X154241666Y-110704261D01*
X154289285Y-110656642D01*
X154336904Y-110561404D01*
X154336904Y-110466166D01*
X154289285Y-110370928D01*
X154241666Y-110323309D01*
X154146428Y-110275690D01*
X153955952Y-110228071D01*
X153860714Y-110180452D01*
X153813095Y-110132833D01*
X153765476Y-110037595D01*
X153765476Y-109942357D01*
X153813095Y-109847119D01*
X153860714Y-109799500D01*
X153955952Y-109751880D01*
X154194047Y-109751880D01*
X154336904Y-109799500D01*
X154670238Y-109751880D02*
X154908333Y-110751880D01*
X155098809Y-110037595D01*
X155289285Y-110751880D01*
X155527380Y-109751880D01*
X156432142Y-110751880D02*
X155860714Y-110751880D01*
X156146428Y-110751880D02*
X156146428Y-109751880D01*
X156051190Y-109894738D01*
X155955952Y-109989976D01*
X155860714Y-110037595D01*
X157051190Y-109751880D02*
X157146428Y-109751880D01*
X157241666Y-109799500D01*
X157289285Y-109847119D01*
X157336904Y-109942357D01*
X157384523Y-110132833D01*
X157384523Y-110370928D01*
X157336904Y-110561404D01*
X157289285Y-110656642D01*
X157241666Y-110704261D01*
X157146428Y-110751880D01*
X157051190Y-110751880D01*
X156955952Y-110704261D01*
X156908333Y-110656642D01*
X156860714Y-110561404D01*
X156813095Y-110370928D01*
X156813095Y-110132833D01*
X156860714Y-109942357D01*
X156908333Y-109847119D01*
X156955952Y-109799500D01*
X157051190Y-109751880D01*
X155575000Y-112164880D02*
X155575000Y-112402976D01*
X155336904Y-112307738D02*
X155575000Y-112402976D01*
X155813095Y-112307738D01*
X155432142Y-112593452D02*
X155575000Y-112402976D01*
X155717857Y-112593452D01*
%TO.C,SW5*%
X138366666Y-94829261D02*
X138509523Y-94876880D01*
X138747619Y-94876880D01*
X138842857Y-94829261D01*
X138890476Y-94781642D01*
X138938095Y-94686404D01*
X138938095Y-94591166D01*
X138890476Y-94495928D01*
X138842857Y-94448309D01*
X138747619Y-94400690D01*
X138557142Y-94353071D01*
X138461904Y-94305452D01*
X138414285Y-94257833D01*
X138366666Y-94162595D01*
X138366666Y-94067357D01*
X138414285Y-93972119D01*
X138461904Y-93924500D01*
X138557142Y-93876880D01*
X138795238Y-93876880D01*
X138938095Y-93924500D01*
X139271428Y-93876880D02*
X139509523Y-94876880D01*
X139700000Y-94162595D01*
X139890476Y-94876880D01*
X140128571Y-93876880D01*
X140985714Y-93876880D02*
X140509523Y-93876880D01*
X140461904Y-94353071D01*
X140509523Y-94305452D01*
X140604761Y-94257833D01*
X140842857Y-94257833D01*
X140938095Y-94305452D01*
X140985714Y-94353071D01*
X141033333Y-94448309D01*
X141033333Y-94686404D01*
X140985714Y-94781642D01*
X140938095Y-94829261D01*
X140842857Y-94876880D01*
X140604761Y-94876880D01*
X140509523Y-94829261D01*
X140461904Y-94781642D01*
X139700000Y-96289880D02*
X139700000Y-96527976D01*
X139461904Y-96432738D02*
X139700000Y-96527976D01*
X139938095Y-96432738D01*
X139557142Y-96718452D02*
X139700000Y-96527976D01*
X139842857Y-96718452D01*
%TO.C,J6*%
X132797074Y-109045333D02*
X133511360Y-109045333D01*
X133654217Y-109092952D01*
X133749455Y-109188190D01*
X133797074Y-109331047D01*
X133797074Y-109426285D01*
X132797074Y-108140571D02*
X132797074Y-108331047D01*
X132844694Y-108426285D01*
X132892313Y-108473904D01*
X133035170Y-108569142D01*
X133225646Y-108616761D01*
X133606598Y-108616761D01*
X133701836Y-108569142D01*
X133749455Y-108521523D01*
X133797074Y-108426285D01*
X133797074Y-108235809D01*
X133749455Y-108140571D01*
X133701836Y-108092952D01*
X133606598Y-108045333D01*
X133368503Y-108045333D01*
X133273265Y-108092952D01*
X133225646Y-108140571D01*
X133178027Y-108235809D01*
X133178027Y-108426285D01*
X133225646Y-108521523D01*
X133273265Y-108569142D01*
X133368503Y-108616761D01*
%TO.C,SW3*%
X170116666Y-78954261D02*
X170259523Y-79001880D01*
X170497619Y-79001880D01*
X170592857Y-78954261D01*
X170640476Y-78906642D01*
X170688095Y-78811404D01*
X170688095Y-78716166D01*
X170640476Y-78620928D01*
X170592857Y-78573309D01*
X170497619Y-78525690D01*
X170307142Y-78478071D01*
X170211904Y-78430452D01*
X170164285Y-78382833D01*
X170116666Y-78287595D01*
X170116666Y-78192357D01*
X170164285Y-78097119D01*
X170211904Y-78049500D01*
X170307142Y-78001880D01*
X170545238Y-78001880D01*
X170688095Y-78049500D01*
X171021428Y-78001880D02*
X171259523Y-79001880D01*
X171450000Y-78287595D01*
X171640476Y-79001880D01*
X171878571Y-78001880D01*
X172164285Y-78001880D02*
X172783333Y-78001880D01*
X172450000Y-78382833D01*
X172592857Y-78382833D01*
X172688095Y-78430452D01*
X172735714Y-78478071D01*
X172783333Y-78573309D01*
X172783333Y-78811404D01*
X172735714Y-78906642D01*
X172688095Y-78954261D01*
X172592857Y-79001880D01*
X172307142Y-79001880D01*
X172211904Y-78954261D01*
X172164285Y-78906642D01*
X171450000Y-80414880D02*
X171450000Y-80652976D01*
X171211904Y-80557738D02*
X171450000Y-80652976D01*
X171688095Y-80557738D01*
X171307142Y-80843452D02*
X171450000Y-80652976D01*
X171592857Y-80843452D01*
%TO.C,SW1*%
X138366666Y-78954261D02*
X138509523Y-79001880D01*
X138747619Y-79001880D01*
X138842857Y-78954261D01*
X138890476Y-78906642D01*
X138938095Y-78811404D01*
X138938095Y-78716166D01*
X138890476Y-78620928D01*
X138842857Y-78573309D01*
X138747619Y-78525690D01*
X138557142Y-78478071D01*
X138461904Y-78430452D01*
X138414285Y-78382833D01*
X138366666Y-78287595D01*
X138366666Y-78192357D01*
X138414285Y-78097119D01*
X138461904Y-78049500D01*
X138557142Y-78001880D01*
X138795238Y-78001880D01*
X138938095Y-78049500D01*
X139271428Y-78001880D02*
X139509523Y-79001880D01*
X139700000Y-78287595D01*
X139890476Y-79001880D01*
X140128571Y-78001880D01*
X141033333Y-79001880D02*
X140461904Y-79001880D01*
X140747619Y-79001880D02*
X140747619Y-78001880D01*
X140652380Y-78144738D01*
X140557142Y-78239976D01*
X140461904Y-78287595D01*
X139700000Y-80414880D02*
X139700000Y-80652976D01*
X139461904Y-80557738D02*
X139700000Y-80652976D01*
X139938095Y-80557738D01*
X139557142Y-80843452D02*
X139700000Y-80652976D01*
X139842857Y-80843452D01*
%TO.C,SW13*%
X202052977Y-79544762D02*
X202195834Y-79592381D01*
X202433929Y-79592381D01*
X202529167Y-79544762D01*
X202576786Y-79497143D01*
X202624405Y-79401905D01*
X202624405Y-79306667D01*
X202576786Y-79211429D01*
X202529167Y-79163810D01*
X202433929Y-79116191D01*
X202243453Y-79068572D01*
X202148215Y-79020953D01*
X202100596Y-78973334D01*
X202052977Y-78878096D01*
X202052977Y-78782858D01*
X202100596Y-78687620D01*
X202148215Y-78640001D01*
X202243453Y-78592381D01*
X202481548Y-78592381D01*
X202624405Y-78640001D01*
X202957739Y-78592381D02*
X203195834Y-79592381D01*
X203386310Y-78878096D01*
X203576786Y-79592381D01*
X203814881Y-78592381D01*
X204719643Y-79592381D02*
X204148215Y-79592381D01*
X204433929Y-79592381D02*
X204433929Y-78592381D01*
X204338691Y-78735239D01*
X204243453Y-78830477D01*
X204148215Y-78878096D01*
X205052977Y-78592381D02*
X205672024Y-78592381D01*
X205338691Y-78973334D01*
X205481548Y-78973334D01*
X205576786Y-79020953D01*
X205624405Y-79068572D01*
X205672024Y-79163810D01*
X205672024Y-79401905D01*
X205624405Y-79497143D01*
X205576786Y-79544762D01*
X205481548Y-79592381D01*
X205195834Y-79592381D01*
X205100596Y-79544762D01*
X205052977Y-79497143D01*
%TO.C,SW11*%
X169640476Y-110704261D02*
X169783333Y-110751880D01*
X170021428Y-110751880D01*
X170116666Y-110704261D01*
X170164285Y-110656642D01*
X170211904Y-110561404D01*
X170211904Y-110466166D01*
X170164285Y-110370928D01*
X170116666Y-110323309D01*
X170021428Y-110275690D01*
X169830952Y-110228071D01*
X169735714Y-110180452D01*
X169688095Y-110132833D01*
X169640476Y-110037595D01*
X169640476Y-109942357D01*
X169688095Y-109847119D01*
X169735714Y-109799500D01*
X169830952Y-109751880D01*
X170069047Y-109751880D01*
X170211904Y-109799500D01*
X170545238Y-109751880D02*
X170783333Y-110751880D01*
X170973809Y-110037595D01*
X171164285Y-110751880D01*
X171402380Y-109751880D01*
X172307142Y-110751880D02*
X171735714Y-110751880D01*
X172021428Y-110751880D02*
X172021428Y-109751880D01*
X171926190Y-109894738D01*
X171830952Y-109989976D01*
X171735714Y-110037595D01*
X173259523Y-110751880D02*
X172688095Y-110751880D01*
X172973809Y-110751880D02*
X172973809Y-109751880D01*
X172878571Y-109894738D01*
X172783333Y-109989976D01*
X172688095Y-110037595D01*
X171450000Y-112164880D02*
X171450000Y-112402976D01*
X171211904Y-112307738D02*
X171450000Y-112402976D01*
X171688095Y-112307738D01*
X171307142Y-112593452D02*
X171450000Y-112402976D01*
X171592857Y-112593452D01*
%TO.C,SW12*%
X185515476Y-110704261D02*
X185658333Y-110751880D01*
X185896428Y-110751880D01*
X185991666Y-110704261D01*
X186039285Y-110656642D01*
X186086904Y-110561404D01*
X186086904Y-110466166D01*
X186039285Y-110370928D01*
X185991666Y-110323309D01*
X185896428Y-110275690D01*
X185705952Y-110228071D01*
X185610714Y-110180452D01*
X185563095Y-110132833D01*
X185515476Y-110037595D01*
X185515476Y-109942357D01*
X185563095Y-109847119D01*
X185610714Y-109799500D01*
X185705952Y-109751880D01*
X185944047Y-109751880D01*
X186086904Y-109799500D01*
X186420238Y-109751880D02*
X186658333Y-110751880D01*
X186848809Y-110037595D01*
X187039285Y-110751880D01*
X187277380Y-109751880D01*
X188182142Y-110751880D02*
X187610714Y-110751880D01*
X187896428Y-110751880D02*
X187896428Y-109751880D01*
X187801190Y-109894738D01*
X187705952Y-109989976D01*
X187610714Y-110037595D01*
X188563095Y-109847119D02*
X188610714Y-109799500D01*
X188705952Y-109751880D01*
X188944047Y-109751880D01*
X189039285Y-109799500D01*
X189086904Y-109847119D01*
X189134523Y-109942357D01*
X189134523Y-110037595D01*
X189086904Y-110180452D01*
X188515476Y-110751880D01*
X189134523Y-110751880D01*
X187325000Y-112164880D02*
X187325000Y-112402976D01*
X187086904Y-112307738D02*
X187325000Y-112402976D01*
X187563095Y-112307738D01*
X187182142Y-112593452D02*
X187325000Y-112402976D01*
X187467857Y-112593452D01*
%TO.C,SW6*%
X154241666Y-94829261D02*
X154384523Y-94876880D01*
X154622619Y-94876880D01*
X154717857Y-94829261D01*
X154765476Y-94781642D01*
X154813095Y-94686404D01*
X154813095Y-94591166D01*
X154765476Y-94495928D01*
X154717857Y-94448309D01*
X154622619Y-94400690D01*
X154432142Y-94353071D01*
X154336904Y-94305452D01*
X154289285Y-94257833D01*
X154241666Y-94162595D01*
X154241666Y-94067357D01*
X154289285Y-93972119D01*
X154336904Y-93924500D01*
X154432142Y-93876880D01*
X154670238Y-93876880D01*
X154813095Y-93924500D01*
X155146428Y-93876880D02*
X155384523Y-94876880D01*
X155575000Y-94162595D01*
X155765476Y-94876880D01*
X156003571Y-93876880D01*
X156813095Y-93876880D02*
X156622619Y-93876880D01*
X156527380Y-93924500D01*
X156479761Y-93972119D01*
X156384523Y-94114976D01*
X156336904Y-94305452D01*
X156336904Y-94686404D01*
X156384523Y-94781642D01*
X156432142Y-94829261D01*
X156527380Y-94876880D01*
X156717857Y-94876880D01*
X156813095Y-94829261D01*
X156860714Y-94781642D01*
X156908333Y-94686404D01*
X156908333Y-94448309D01*
X156860714Y-94353071D01*
X156813095Y-94305452D01*
X156717857Y-94257833D01*
X156527380Y-94257833D01*
X156432142Y-94305452D01*
X156384523Y-94353071D01*
X156336904Y-94448309D01*
X155575000Y-96289880D02*
X155575000Y-96527976D01*
X155336904Y-96432738D02*
X155575000Y-96527976D01*
X155813095Y-96432738D01*
X155432142Y-96718452D02*
X155575000Y-96527976D01*
X155717857Y-96718452D01*
%TO.C,SW7*%
X170116666Y-94829261D02*
X170259523Y-94876880D01*
X170497619Y-94876880D01*
X170592857Y-94829261D01*
X170640476Y-94781642D01*
X170688095Y-94686404D01*
X170688095Y-94591166D01*
X170640476Y-94495928D01*
X170592857Y-94448309D01*
X170497619Y-94400690D01*
X170307142Y-94353071D01*
X170211904Y-94305452D01*
X170164285Y-94257833D01*
X170116666Y-94162595D01*
X170116666Y-94067357D01*
X170164285Y-93972119D01*
X170211904Y-93924500D01*
X170307142Y-93876880D01*
X170545238Y-93876880D01*
X170688095Y-93924500D01*
X171021428Y-93876880D02*
X171259523Y-94876880D01*
X171450000Y-94162595D01*
X171640476Y-94876880D01*
X171878571Y-93876880D01*
X172164285Y-93876880D02*
X172830952Y-93876880D01*
X172402380Y-94876880D01*
X171450000Y-96289880D02*
X171450000Y-96527976D01*
X171211904Y-96432738D02*
X171450000Y-96527976D01*
X171688095Y-96432738D01*
X171307142Y-96718452D02*
X171450000Y-96527976D01*
X171592857Y-96718452D01*
%TO.C,J1*%
X132797074Y-96345333D02*
X133511360Y-96345333D01*
X133654217Y-96392952D01*
X133749455Y-96488190D01*
X133797074Y-96631047D01*
X133797074Y-96726285D01*
X133797074Y-95345333D02*
X133797074Y-95916761D01*
X133797074Y-95631047D02*
X132797074Y-95631047D01*
X132939932Y-95726285D01*
X133035170Y-95821523D01*
X133082789Y-95916761D01*
%TO.C,J7*%
X132797074Y-111585333D02*
X133511360Y-111585333D01*
X133654217Y-111632952D01*
X133749455Y-111728190D01*
X133797074Y-111871047D01*
X133797074Y-111966285D01*
X132797074Y-111204380D02*
X132797074Y-110537714D01*
X133797074Y-110966285D01*
%TO.C,SW8*%
X185991666Y-94829261D02*
X186134523Y-94876880D01*
X186372619Y-94876880D01*
X186467857Y-94829261D01*
X186515476Y-94781642D01*
X186563095Y-94686404D01*
X186563095Y-94591166D01*
X186515476Y-94495928D01*
X186467857Y-94448309D01*
X186372619Y-94400690D01*
X186182142Y-94353071D01*
X186086904Y-94305452D01*
X186039285Y-94257833D01*
X185991666Y-94162595D01*
X185991666Y-94067357D01*
X186039285Y-93972119D01*
X186086904Y-93924500D01*
X186182142Y-93876880D01*
X186420238Y-93876880D01*
X186563095Y-93924500D01*
X186896428Y-93876880D02*
X187134523Y-94876880D01*
X187325000Y-94162595D01*
X187515476Y-94876880D01*
X187753571Y-93876880D01*
X188277380Y-94305452D02*
X188182142Y-94257833D01*
X188134523Y-94210214D01*
X188086904Y-94114976D01*
X188086904Y-94067357D01*
X188134523Y-93972119D01*
X188182142Y-93924500D01*
X188277380Y-93876880D01*
X188467857Y-93876880D01*
X188563095Y-93924500D01*
X188610714Y-93972119D01*
X188658333Y-94067357D01*
X188658333Y-94114976D01*
X188610714Y-94210214D01*
X188563095Y-94257833D01*
X188467857Y-94305452D01*
X188277380Y-94305452D01*
X188182142Y-94353071D01*
X188134523Y-94400690D01*
X188086904Y-94495928D01*
X188086904Y-94686404D01*
X188134523Y-94781642D01*
X188182142Y-94829261D01*
X188277380Y-94876880D01*
X188467857Y-94876880D01*
X188563095Y-94829261D01*
X188610714Y-94781642D01*
X188658333Y-94686404D01*
X188658333Y-94495928D01*
X188610714Y-94400690D01*
X188563095Y-94353071D01*
X188467857Y-94305452D01*
X187325000Y-96289880D02*
X187325000Y-96527976D01*
X187086904Y-96432738D02*
X187325000Y-96527976D01*
X187563095Y-96432738D01*
X187182142Y-96718452D02*
X187325000Y-96527976D01*
X187467857Y-96718452D01*
D12*
%TO.C,J4*%
X136845694Y-103632000D02*
G75*
G03*
X136845694Y-103632000I-1251000J0D01*
G01*
%TO.C,SW4*%
X187447999Y-82042256D02*
X187447999Y-84382745D01*
X187966772Y-86339502D02*
X193183230Y-86339502D01*
X193702003Y-84382745D02*
X193702003Y-82042256D01*
X193183230Y-80085499D02*
X187966772Y-80085499D01*
X187452000Y-78422500D02*
G75*
G03*
X187452000Y-78422500I-127000J0D01*
G01*
%TO.C,SW9*%
X145558230Y-111835499D02*
X140341772Y-111835499D01*
X146077003Y-116132745D02*
X146077003Y-113792256D01*
X140341772Y-118089502D02*
X145558230Y-118089502D01*
X139822999Y-113792256D02*
X139822999Y-116132745D01*
X139827000Y-110172500D02*
G75*
G03*
X139827000Y-110172500I-127000J0D01*
G01*
%TO.C,J2*%
X136845694Y-98552000D02*
G75*
G03*
X136845694Y-98552000I-1251000J0D01*
G01*
%TO.C,J3*%
X136845694Y-101092000D02*
G75*
G03*
X136845694Y-101092000I-1251000J0D01*
G01*
%TO.C,SW2*%
X161433230Y-80085499D02*
X156216772Y-80085499D01*
X156216772Y-86339502D02*
X161433230Y-86339502D01*
X161952003Y-84382745D02*
X161952003Y-82042256D01*
X155697999Y-82042256D02*
X155697999Y-84382745D01*
X155702000Y-78422500D02*
G75*
G03*
X155702000Y-78422500I-127000J0D01*
G01*
%TO.C,J5*%
X136845694Y-106172000D02*
G75*
G03*
X136845694Y-106172000I-1251000J0D01*
G01*
%TO.C,SW10*%
X156216772Y-118089502D02*
X161433230Y-118089502D01*
X161433230Y-111835499D02*
X156216772Y-111835499D01*
X161952003Y-116132745D02*
X161952003Y-113792256D01*
X155697999Y-113792256D02*
X155697999Y-116132745D01*
X155702000Y-110172500D02*
G75*
G03*
X155702000Y-110172500I-127000J0D01*
G01*
%TO.C,SW5*%
X139822999Y-97917256D02*
X139822999Y-100257745D01*
X145558230Y-95960499D02*
X140341772Y-95960499D01*
X146077003Y-100257745D02*
X146077003Y-97917256D01*
X140341772Y-102214502D02*
X145558230Y-102214502D01*
X139827000Y-94297500D02*
G75*
G03*
X139827000Y-94297500I-127000J0D01*
G01*
%TO.C,J6*%
X136845694Y-108712000D02*
G75*
G03*
X136845694Y-108712000I-1251000J0D01*
G01*
%TO.C,SW3*%
X171572999Y-82042256D02*
X171572999Y-84382745D01*
X177308230Y-80085499D02*
X172091772Y-80085499D01*
X177827003Y-84382745D02*
X177827003Y-82042256D01*
X172091772Y-86339502D02*
X177308230Y-86339502D01*
X171577000Y-78422500D02*
G75*
G03*
X171577000Y-78422500I-127000J0D01*
G01*
%TO.C,SW1*%
X145558230Y-80085499D02*
X140341772Y-80085499D01*
X140341772Y-86339502D02*
X145558230Y-86339502D01*
X146077003Y-84382745D02*
X146077003Y-82042256D01*
X139822999Y-82042256D02*
X139822999Y-84382745D01*
X139827000Y-78422500D02*
G75*
G03*
X139827000Y-78422500I-127000J0D01*
G01*
D13*
%TO.C,SW13*%
X201787501Y-81275001D02*
X204337501Y-81275001D01*
X201787501Y-84575001D02*
X201787501Y-81275001D01*
X201787501Y-91375001D02*
X201787501Y-94675001D01*
X201787501Y-94675001D02*
X204337501Y-94675001D01*
X214287501Y-94675001D02*
X214287501Y-91375001D01*
X211737501Y-81275001D02*
X214287501Y-81275001D01*
X211737501Y-94675001D02*
X214287501Y-94675001D01*
X214287501Y-81275001D02*
X214287501Y-84575001D01*
D14*
X203937501Y-80375001D02*
G75*
G03*
X203937501Y-80375001I-100000J0D01*
G01*
D12*
%TO.C,SW11*%
X177308230Y-111835499D02*
X172091772Y-111835499D01*
X177827003Y-116132745D02*
X177827003Y-113792256D01*
X171572999Y-113792256D02*
X171572999Y-116132745D01*
X172091772Y-118089502D02*
X177308230Y-118089502D01*
X171577000Y-110172500D02*
G75*
G03*
X171577000Y-110172500I-127000J0D01*
G01*
%TO.C,SW12*%
X193702003Y-116132745D02*
X193702003Y-113792256D01*
X187966772Y-118089502D02*
X193183230Y-118089502D01*
X193183230Y-111835499D02*
X187966772Y-111835499D01*
X187447999Y-113792256D02*
X187447999Y-116132745D01*
X187452000Y-110172500D02*
G75*
G03*
X187452000Y-110172500I-127000J0D01*
G01*
%TO.C,SW6*%
X155697999Y-97917256D02*
X155697999Y-100257745D01*
X161433230Y-95960499D02*
X156216772Y-95960499D01*
X156216772Y-102214502D02*
X161433230Y-102214502D01*
X161952003Y-100257745D02*
X161952003Y-97917256D01*
X155702000Y-94297500D02*
G75*
G03*
X155702000Y-94297500I-127000J0D01*
G01*
%TO.C,SW7*%
X171572999Y-97917256D02*
X171572999Y-100257745D01*
X177308230Y-95960499D02*
X172091772Y-95960499D01*
X177827003Y-100257745D02*
X177827003Y-97917256D01*
X172091772Y-102214502D02*
X177308230Y-102214502D01*
X171577000Y-94297500D02*
G75*
G03*
X171577000Y-94297500I-127000J0D01*
G01*
%TO.C,J1*%
X136845694Y-96012000D02*
G75*
G03*
X136845694Y-96012000I-1251000J0D01*
G01*
%TO.C,J7*%
X136845694Y-111252000D02*
G75*
G03*
X136845694Y-111252000I-1251000J0D01*
G01*
%TO.C,SW8*%
X193702003Y-100257745D02*
X193702003Y-97917256D01*
X187447999Y-97917256D02*
X187447999Y-100257745D01*
X193183230Y-95960499D02*
X187966772Y-95960499D01*
X187966772Y-102214502D02*
X193183230Y-102214502D01*
X187452000Y-94297500D02*
G75*
G03*
X187452000Y-94297500I-127000J0D01*
G01*
%TD*%
M02*
