%TF.GenerationSoftware,KiCad,Pcbnew,(6.0.10-0)*%
%TF.CreationDate,2023-03-18T12:33:40-04:00*%
%TF.ProjectId,Shuttle Tracker Node,53687574-746c-4652-9054-7261636b6572,rev?*%
%TF.SameCoordinates,Original*%
%TF.FileFunction,Legend,Bot*%
%TF.FilePolarity,Positive*%
%FSLAX46Y46*%
G04 Gerber Fmt 4.6, Leading zero omitted, Abs format (unit mm)*
G04 Created by KiCad (PCBNEW (6.0.10-0)) date 2023-03-18 12:33:40*
%MOMM*%
%LPD*%
G01*
G04 APERTURE LIST*
%ADD10C,0.150000*%
%ADD11C,0.120000*%
%ADD12C,0.127000*%
%ADD13C,0.200000*%
G04 APERTURE END LIST*
D10*
%TO.C,R1*%
X147757380Y-114768333D02*
X147281190Y-114435000D01*
X147757380Y-114196904D02*
X146757380Y-114196904D01*
X146757380Y-114577857D01*
X146805000Y-114673095D01*
X146852619Y-114720714D01*
X146947857Y-114768333D01*
X147090714Y-114768333D01*
X147185952Y-114720714D01*
X147233571Y-114673095D01*
X147281190Y-114577857D01*
X147281190Y-114196904D01*
X147757380Y-115720714D02*
X147757380Y-115149285D01*
X147757380Y-115435000D02*
X146757380Y-115435000D01*
X146900238Y-115339761D01*
X146995476Y-115244523D01*
X147043095Y-115149285D01*
%TO.C,R2*%
X154772380Y-114768333D02*
X154296190Y-114435000D01*
X154772380Y-114196904D02*
X153772380Y-114196904D01*
X153772380Y-114577857D01*
X153820000Y-114673095D01*
X153867619Y-114720714D01*
X153962857Y-114768333D01*
X154105714Y-114768333D01*
X154200952Y-114720714D01*
X154248571Y-114673095D01*
X154296190Y-114577857D01*
X154296190Y-114196904D01*
X153867619Y-115149285D02*
X153820000Y-115196904D01*
X153772380Y-115292142D01*
X153772380Y-115530238D01*
X153820000Y-115625476D01*
X153867619Y-115673095D01*
X153962857Y-115720714D01*
X154058095Y-115720714D01*
X154200952Y-115673095D01*
X154772380Y-115101666D01*
X154772380Y-115720714D01*
%TO.C,U1*%
X219451904Y-77172380D02*
X219451904Y-77981904D01*
X219404285Y-78077142D01*
X219356666Y-78124761D01*
X219261428Y-78172380D01*
X219070952Y-78172380D01*
X218975714Y-78124761D01*
X218928095Y-78077142D01*
X218880476Y-77981904D01*
X218880476Y-77172380D01*
X217880476Y-78172380D02*
X218451904Y-78172380D01*
X218166190Y-78172380D02*
X218166190Y-77172380D01*
X218261428Y-77315238D01*
X218356666Y-77410476D01*
X218451904Y-77458095D01*
X210176904Y-116292380D02*
X210176904Y-117101904D01*
X210129285Y-117197142D01*
X210081666Y-117244761D01*
X209986428Y-117292380D01*
X209795952Y-117292380D01*
X209700714Y-117244761D01*
X209653095Y-117197142D01*
X209605476Y-117101904D01*
X209605476Y-116292380D01*
X209176904Y-117244761D02*
X209034047Y-117292380D01*
X208795952Y-117292380D01*
X208700714Y-117244761D01*
X208653095Y-117197142D01*
X208605476Y-117101904D01*
X208605476Y-117006666D01*
X208653095Y-116911428D01*
X208700714Y-116863809D01*
X208795952Y-116816190D01*
X208986428Y-116768571D01*
X209081666Y-116720952D01*
X209129285Y-116673333D01*
X209176904Y-116578095D01*
X209176904Y-116482857D01*
X209129285Y-116387619D01*
X209081666Y-116340000D01*
X208986428Y-116292380D01*
X208748333Y-116292380D01*
X208605476Y-116340000D01*
X207843571Y-116768571D02*
X207700714Y-116816190D01*
X207653095Y-116863809D01*
X207605476Y-116959047D01*
X207605476Y-117101904D01*
X207653095Y-117197142D01*
X207700714Y-117244761D01*
X207795952Y-117292380D01*
X208176904Y-117292380D01*
X208176904Y-116292380D01*
X207843571Y-116292380D01*
X207748333Y-116340000D01*
X207700714Y-116387619D01*
X207653095Y-116482857D01*
X207653095Y-116578095D01*
X207700714Y-116673333D01*
X207748333Y-116720952D01*
X207843571Y-116768571D01*
X208176904Y-116768571D01*
X210248333Y-80732380D02*
X210010238Y-81732380D01*
X209819761Y-81018095D01*
X209629285Y-81732380D01*
X209391190Y-80732380D01*
X209010238Y-81732380D02*
X209010238Y-80732380D01*
X208200714Y-81208571D02*
X208534047Y-81208571D01*
X208534047Y-81732380D02*
X208534047Y-80732380D01*
X208057857Y-80732380D01*
X207676904Y-81732380D02*
X207676904Y-80732380D01*
D11*
%TO.C,SW4*%
X187452000Y-78422500D02*
G75*
G03*
X187452000Y-78422500I-127000J0D01*
G01*
%TO.C,SW9*%
X139827000Y-110172500D02*
G75*
G03*
X139827000Y-110172500I-127000J0D01*
G01*
%TO.C,SW2*%
X155702000Y-78422500D02*
G75*
G03*
X155702000Y-78422500I-127000J0D01*
G01*
%TO.C,SW10*%
X155702000Y-110172500D02*
G75*
G03*
X155702000Y-110172500I-127000J0D01*
G01*
%TO.C,SW5*%
X139827000Y-94297500D02*
G75*
G03*
X139827000Y-94297500I-127000J0D01*
G01*
%TO.C,SW3*%
X171577000Y-78422500D02*
G75*
G03*
X171577000Y-78422500I-127000J0D01*
G01*
%TO.C,SW1*%
X139827000Y-78422500D02*
G75*
G03*
X139827000Y-78422500I-127000J0D01*
G01*
%TO.C,SW11*%
X171577000Y-110172500D02*
G75*
G03*
X171577000Y-110172500I-127000J0D01*
G01*
%TO.C,SW12*%
X187452000Y-110172500D02*
G75*
G03*
X187452000Y-110172500I-127000J0D01*
G01*
%TO.C,SW6*%
X155702000Y-94297500D02*
G75*
G03*
X155702000Y-94297500I-127000J0D01*
G01*
%TO.C,SW7*%
X171577000Y-94297500D02*
G75*
G03*
X171577000Y-94297500I-127000J0D01*
G01*
%TO.C,SW8*%
X187452000Y-94297500D02*
G75*
G03*
X187452000Y-94297500I-127000J0D01*
G01*
%TO.C,R1*%
X148305000Y-113015000D02*
X148305000Y-116855000D01*
X150145000Y-113015000D02*
X150145000Y-116855000D01*
%TO.C,R2*%
X153320000Y-116855000D02*
X153320000Y-113015000D01*
X151480000Y-116855000D02*
X151480000Y-113015000D01*
D12*
%TO.C,U1*%
X221615000Y-79605000D02*
X196215000Y-79605000D01*
X196215000Y-118515000D02*
X221615000Y-118515000D01*
X221615000Y-118515000D02*
X221615000Y-79605000D01*
X196215000Y-79605000D02*
X196215000Y-118515000D01*
D13*
X222477000Y-81713000D02*
G75*
G03*
X222477000Y-81713000I-100000J0D01*
G01*
%TD*%
M02*
