%TF.GenerationSoftware,KiCad,Pcbnew,(6.0.10-0)*%
%TF.CreationDate,2023-02-27T20:49:15-05:00*%
%TF.ProjectId,Shuttle Tracker Node,53687574-746c-4652-9054-7261636b6572,rev?*%
%TF.SameCoordinates,Original*%
%TF.FileFunction,Copper,L2,Bot*%
%TF.FilePolarity,Positive*%
%FSLAX46Y46*%
G04 Gerber Fmt 4.6, Leading zero omitted, Abs format (unit mm)*
G04 Created by KiCad (PCBNEW (6.0.10-0)) date 2023-02-27 20:49:15*
%MOMM*%
%LPD*%
G01*
G04 APERTURE LIST*
%TA.AperFunction,ComponentPad*%
%ADD10C,2.000000*%
%TD*%
%TA.AperFunction,ComponentPad*%
%ADD11C,1.507998*%
%TD*%
%TA.AperFunction,ComponentPad*%
%ADD12R,1.650000X1.650000*%
%TD*%
%TA.AperFunction,ComponentPad*%
%ADD13C,1.650000*%
%TD*%
%TA.AperFunction,ComponentPad*%
%ADD14O,3.000000X6.000000*%
%TD*%
%TA.AperFunction,ComponentPad*%
%ADD15C,1.400000*%
%TD*%
%TA.AperFunction,ComponentPad*%
%ADD16O,1.400000X1.400000*%
%TD*%
%TA.AperFunction,ComponentPad*%
%ADD17R,1.530000X1.530000*%
%TD*%
%TA.AperFunction,ComponentPad*%
%ADD18C,1.530000*%
%TD*%
%TA.AperFunction,ViaPad*%
%ADD19C,0.800000*%
%TD*%
%TA.AperFunction,Conductor*%
%ADD20C,0.381000*%
%TD*%
%TA.AperFunction,Conductor*%
%ADD21C,0.250000*%
%TD*%
G04 APERTURE END LIST*
D10*
%TO.P,J4,1,Pin_1*%
%TO.N,LCD_GND*%
X135636000Y-97536000D03*
%TD*%
D11*
%TO.P,SW4,1,1*%
%TO.N,C4*%
X187325000Y-80962500D03*
%TO.P,SW4,2,2*%
%TO.N,R1*%
X193825002Y-80962500D03*
%TO.P,SW4,3*%
%TO.N,N/C*%
X187325000Y-85462501D03*
%TO.P,SW4,4*%
X193825002Y-85462501D03*
%TD*%
%TO.P,SW9,1,1*%
%TO.N,C1*%
X139700000Y-112712500D03*
%TO.P,SW9,2,2*%
%TO.N,R3*%
X146200002Y-112712500D03*
%TO.P,SW9,3*%
%TO.N,N/C*%
X139700000Y-117212501D03*
%TO.P,SW9,4*%
X146200002Y-117212501D03*
%TD*%
D10*
%TO.P,J2,1,Pin_1*%
%TO.N,LCD_CLK*%
X135636000Y-89916000D03*
%TD*%
%TO.P,J3,1,Pin_1*%
%TO.N,LCD_5V*%
X135636000Y-93472000D03*
%TD*%
D11*
%TO.P,SW2,1,1*%
%TO.N,C2*%
X155575000Y-80962500D03*
%TO.P,SW2,2,2*%
%TO.N,R1*%
X162075002Y-80962500D03*
%TO.P,SW2,3*%
%TO.N,N/C*%
X155575000Y-85462501D03*
%TO.P,SW2,4*%
X162075002Y-85462501D03*
%TD*%
D10*
%TO.P,J5,1,Pin_1*%
%TO.N,BAT_5V*%
X135620000Y-102616000D03*
%TD*%
D11*
%TO.P,SW10,1,1*%
%TO.N,C2*%
X155575000Y-112712500D03*
%TO.P,SW10,2,2*%
%TO.N,R3*%
X162075002Y-112712500D03*
%TO.P,SW10,3*%
%TO.N,N/C*%
X155575000Y-117212501D03*
%TO.P,SW10,4*%
X162075002Y-117212501D03*
%TD*%
%TO.P,SW5,1,1*%
%TO.N,C1*%
X139700000Y-96837500D03*
%TO.P,SW5,2,2*%
%TO.N,R2*%
X146200002Y-96837500D03*
%TO.P,SW5,3*%
%TO.N,N/C*%
X139700000Y-101337501D03*
%TO.P,SW5,4*%
X146200002Y-101337501D03*
%TD*%
D10*
%TO.P,J6,1,Pin_1*%
%TO.N,BAT_GND*%
X135620000Y-106680000D03*
%TD*%
D11*
%TO.P,SW3,1,1*%
%TO.N,C3*%
X171450000Y-80962500D03*
%TO.P,SW3,2,2*%
%TO.N,R1*%
X177950002Y-80962500D03*
%TO.P,SW3,3*%
%TO.N,N/C*%
X171450000Y-85462501D03*
%TO.P,SW3,4*%
X177950002Y-85462501D03*
%TD*%
%TO.P,SW1,1,1*%
%TO.N,C1*%
X139700000Y-80962500D03*
%TO.P,SW1,2,2*%
%TO.N,R1*%
X146200002Y-80962500D03*
%TO.P,SW1,3*%
%TO.N,N/C*%
X139700000Y-85462501D03*
%TO.P,SW1,4*%
X146200002Y-85462501D03*
%TD*%
D12*
%TO.P,SW13,1*%
%TO.N,N/C*%
X205537501Y-80975001D03*
D13*
%TO.P,SW13,2*%
X210537501Y-80975001D03*
%TO.P,SW13,A,A*%
%TO.N,ENC_A*%
X205537501Y-95475001D03*
%TO.P,SW13,B,B*%
%TO.N,ENC_B*%
X210537501Y-95475001D03*
%TO.P,SW13,C,C*%
%TO.N,ENC_GND_A*%
X208037501Y-95475001D03*
D14*
%TO.P,SW13,S1,S1*%
%TO.N,ENC_SW_IN*%
X202337501Y-87975001D03*
%TO.P,SW13,S2,S2*%
%TO.N,ENC_GND_B*%
X213737501Y-87975001D03*
%TD*%
D11*
%TO.P,SW11,1,1*%
%TO.N,C3*%
X171450000Y-112712500D03*
%TO.P,SW11,2,2*%
%TO.N,R3*%
X177950002Y-112712500D03*
%TO.P,SW11,3*%
%TO.N,N/C*%
X171450000Y-117212501D03*
%TO.P,SW11,4*%
X177950002Y-117212501D03*
%TD*%
%TO.P,SW12,1,1*%
%TO.N,C4*%
X187325000Y-112712500D03*
%TO.P,SW12,2,2*%
%TO.N,R3*%
X193825002Y-112712500D03*
%TO.P,SW12,3*%
%TO.N,N/C*%
X187325000Y-117212501D03*
%TO.P,SW12,4*%
X193825002Y-117212501D03*
%TD*%
%TO.P,SW6,1,1*%
%TO.N,C2*%
X155575000Y-96837500D03*
%TO.P,SW6,2,2*%
%TO.N,R2*%
X162075002Y-96837500D03*
%TO.P,SW6,3*%
%TO.N,N/C*%
X155575000Y-101337501D03*
%TO.P,SW6,4*%
X162075002Y-101337501D03*
%TD*%
%TO.P,SW7,1,1*%
%TO.N,C3*%
X171450000Y-96837500D03*
%TO.P,SW7,2,2*%
%TO.N,R2*%
X177950002Y-96837500D03*
%TO.P,SW7,3*%
%TO.N,N/C*%
X171450000Y-101337501D03*
%TO.P,SW7,4*%
X177950002Y-101337501D03*
%TD*%
D10*
%TO.P,J1,1,Pin_1*%
%TO.N,LCD_DAT*%
X135636000Y-86360000D03*
%TD*%
%TO.P,J7,1,Pin_1*%
%TO.N,V_IN*%
X135594694Y-111252000D03*
%TD*%
D11*
%TO.P,SW8,1,1*%
%TO.N,C4*%
X187325000Y-96837500D03*
%TO.P,SW8,2,2*%
%TO.N,R2*%
X193825002Y-96837500D03*
%TO.P,SW8,3*%
%TO.N,N/C*%
X187325000Y-101337501D03*
%TO.P,SW8,4*%
X193825002Y-101337501D03*
%TD*%
D15*
%TO.P,R1,1*%
%TO.N,V_IN*%
X149225000Y-112395000D03*
D16*
%TO.P,R1,2*%
%TO.N,V_OUT*%
X149225000Y-117475000D03*
%TD*%
D15*
%TO.P,R2,1*%
%TO.N,V_OUT*%
X152400000Y-117475000D03*
D16*
%TO.P,R2,2*%
%TO.N,V_GND*%
X152400000Y-112395000D03*
%TD*%
D17*
%TO.P,U1,1,GND*%
%TO.N,ENC_GND_B*%
X220345000Y-81667800D03*
D18*
%TO.P,U1,2,3V3*%
%TO.N,unconnected-(U1-Pad2)*%
X220345000Y-84207800D03*
%TO.P,U1,3,3V3*%
%TO.N,unconnected-(U1-Pad3)*%
X220345000Y-86747800D03*
%TO.P,U1,4,RST*%
%TO.N,unconnected-(U1-Pad4)*%
X220345000Y-89287800D03*
%TO.P,U1,5,GND*%
%TO.N,unconnected-(U1-Pad5)*%
X220345000Y-91827800D03*
%TO.P,U1,6,GPIO4*%
%TO.N,V_OUT*%
X220345000Y-94367800D03*
%TO.P,U1,7,GPIO5*%
%TO.N,R1*%
X220345000Y-96907800D03*
%TO.P,U1,8,GPIO6*%
%TO.N,R2*%
X220345000Y-99447800D03*
%TO.P,U1,9,GPIO7*%
%TO.N,R3*%
X220345000Y-101987800D03*
%TO.P,U1,10,GND*%
%TO.N,unconnected-(U1-Pad10)*%
X220345000Y-104527800D03*
%TO.P,U1,11,GPIO8*%
%TO.N,unconnected-(U1-Pad11)*%
X220345000Y-107067800D03*
%TO.P,U1,12,GPIO9*%
%TO.N,ENC_A*%
X220345000Y-109607800D03*
%TO.P,U1,13,5V*%
%TO.N,LCD_5V*%
X220345000Y-112147800D03*
%TO.P,U1,14,5V*%
%TO.N,BAT_5V*%
X220345000Y-114687800D03*
%TO.P,U1,15,GND*%
%TO.N,BAT_GND*%
X220345000Y-117227800D03*
%TO.P,U1,16,GND*%
%TO.N,LCD_GND*%
X197485000Y-117227800D03*
%TO.P,U1,17,GND*%
%TO.N,V_GND*%
X197485000Y-114687800D03*
%TO.P,U1,18,GPIO19*%
%TO.N,LCD_DAT*%
X197485000Y-112147800D03*
%TO.P,U1,19,GPIO18*%
%TO.N,LCD_CLK*%
X197485000Y-109607800D03*
%TO.P,U1,20,GND*%
%TO.N,unconnected-(U1-Pad20)*%
X197485000Y-107067800D03*
%TO.P,U1,21,GPIO21/U0TXD*%
%TO.N,unconnected-(U1-Pad21)*%
X197485000Y-104527800D03*
%TO.P,U1,22,GPIO20/U0RXD*%
%TO.N,ENC_B*%
X197485000Y-101987800D03*
%TO.P,U1,23,GND*%
%TO.N,unconnected-(U1-Pad23)*%
X197485000Y-99447800D03*
%TO.P,U1,24,GPIO10*%
%TO.N,ENC_SW_IN*%
X197485000Y-96907800D03*
%TO.P,U1,25,GND*%
%TO.N,unconnected-(U1-Pad25)*%
X197485000Y-94367800D03*
%TO.P,U1,26,GPIO3*%
%TO.N,C1*%
X197485000Y-91827800D03*
%TO.P,U1,27,GPIO2*%
%TO.N,C2*%
X197485000Y-89287800D03*
%TO.P,U1,28,GPIO1/XTAL_32K_N*%
%TO.N,C3*%
X197485000Y-86747800D03*
%TO.P,U1,29,GPIO0/XTAL_32K_P*%
%TO.N,C4*%
X197485000Y-84207800D03*
%TO.P,U1,30,GND*%
%TO.N,ENC_GND_A*%
X197485000Y-81667800D03*
%TD*%
D19*
%TO.N,LCD_DAT*%
X192024000Y-107696000D03*
%TO.N,ENC_B*%
X202692000Y-98044000D03*
%TO.N,V_OUT*%
X217424000Y-102616000D03*
%TO.N,ENC_GND_A*%
X203200000Y-81788000D03*
%TD*%
D20*
%TO.N,LCD_DAT*%
X192024000Y-107696000D02*
X193033200Y-107696000D01*
X193033200Y-107696000D02*
X197485000Y-112147800D01*
%TO.N,LCD_5V*%
X132713091Y-112275117D02*
X140325974Y-119888000D01*
X140325974Y-119888000D02*
X212604800Y-119888000D01*
X132713091Y-100201091D02*
X132713091Y-112142909D01*
X132713091Y-96394909D02*
X132713091Y-100201091D01*
X132713091Y-112142909D02*
X132713091Y-112275117D01*
X135636000Y-93472000D02*
X132713091Y-96394909D01*
X212604800Y-119888000D02*
X220345000Y-112147800D01*
%TO.N,LCD_GND*%
X144272000Y-118872000D02*
X195840800Y-118872000D01*
X141224000Y-115824000D02*
X137160000Y-115824000D01*
X144272000Y-118872000D02*
X141224000Y-115824000D01*
X133475091Y-99696909D02*
X135636000Y-97536000D01*
X137160000Y-115824000D02*
X133475091Y-112139091D01*
X133475091Y-112139091D02*
X133475091Y-99696909D01*
X195840800Y-118872000D02*
X197485000Y-117227800D01*
%TO.N,C1*%
X142240000Y-110172500D02*
X142240000Y-91440000D01*
X139700000Y-112712500D02*
X142240000Y-110172500D01*
X142240000Y-91440000D02*
X142240000Y-83502500D01*
X142240000Y-94297500D02*
X142240000Y-91440000D01*
X139700000Y-96837500D02*
X142240000Y-94297500D01*
X142240000Y-83502500D02*
X139700000Y-80962500D01*
%TO.N,C2*%
X155575000Y-112712500D02*
X153416000Y-110553500D01*
X153416000Y-83121500D02*
X155575000Y-80962500D01*
X155575000Y-96837500D02*
X153416000Y-94678500D01*
X153416000Y-94678500D02*
X153416000Y-91948000D01*
X153416000Y-110553500D02*
X153416000Y-91948000D01*
X153416000Y-91948000D02*
X153416000Y-83121500D01*
%TO.N,C3*%
X169164000Y-83248500D02*
X171450000Y-80962500D01*
X171450000Y-96837500D02*
X169164000Y-94551500D01*
X171450000Y-112712500D02*
X169164000Y-110426500D01*
X169164000Y-94551500D02*
X169164000Y-91440000D01*
X169164000Y-91440000D02*
X169164000Y-83248500D01*
X169164000Y-110426500D02*
X169164000Y-91440000D01*
%TO.N,C4*%
X197485000Y-84207800D02*
X194444840Y-84207800D01*
X194444840Y-84207800D02*
X191199540Y-80962500D01*
X184912000Y-91440000D02*
X184912000Y-83375500D01*
X184912000Y-110299500D02*
X184912000Y-91440000D01*
X191199540Y-80962500D02*
X187325000Y-80962500D01*
X184912000Y-83375500D02*
X187325000Y-80962500D01*
X187325000Y-112712500D02*
X184912000Y-110299500D01*
X184912000Y-94424500D02*
X184912000Y-91440000D01*
X187325000Y-96837500D02*
X184912000Y-94424500D01*
%TO.N,ENC_A*%
X218319800Y-109607800D02*
X220345000Y-109607800D01*
X205537501Y-95475001D02*
X205537501Y-96825501D01*
X205537501Y-96825501D02*
X218319800Y-109607800D01*
%TO.N,ENC_B*%
X202692000Y-98044000D02*
X198748200Y-101987800D01*
X198748200Y-101987800D02*
X197485000Y-101987800D01*
%TO.N,ENC_SW_IN*%
X202337501Y-87975001D02*
X202337501Y-92055299D01*
X202337501Y-92055299D02*
X197485000Y-96907800D01*
D21*
%TO.N,ENC_GND_B*%
X213737501Y-87975001D02*
X214037799Y-87975001D01*
D20*
X220345000Y-81667800D02*
X220044702Y-81667800D01*
X220044702Y-81667800D02*
X213737501Y-87975001D01*
%TO.N,V_IN*%
X135594694Y-111252000D02*
X139150694Y-114808000D01*
X139150694Y-114808000D02*
X146812000Y-114808000D01*
X146812000Y-114808000D02*
X149225000Y-112395000D01*
%TO.N,V_OUT*%
X217424000Y-97288800D02*
X220345000Y-94367800D01*
X217424000Y-102616000D02*
X217424000Y-97288800D01*
%TO.N,V_GND*%
X152400000Y-112395000D02*
X154692800Y-114687800D01*
X154692800Y-114687800D02*
X197485000Y-114687800D01*
%TO.N,ENC_GND_A*%
X208037501Y-95475001D02*
X208037501Y-86625501D01*
X208037501Y-86625501D02*
X203200000Y-81788000D01*
%TD*%
M02*
