M48
; DRILL file {KiCad (6.0.10-0)} date Monday, February 27, 2023 at 09:01:11 PM
; FORMAT={-:-/ absolute / inch / decimal}
; #@! TF.CreationDate,2023-02-27T21:01:11-05:00
; #@! TF.GenerationSoftware,Kicad,Pcbnew,(6.0.10-0)
; #@! TF.FileFunction,Plated,1,2,PTH
FMAT,2
INCH
; #@! TA.AperFunction,Plated,PTH,ViaDrill
T1C0.0157
; #@! TA.AperFunction,Plated,PTH,ComponentDrill
T2C0.0276
; #@! TA.AperFunction,Plated,PTH,ComponentDrill
T3C0.0394
; #@! TA.AperFunction,Plated,PTH,ComponentDrill
T4C0.0394
; #@! TA.AperFunction,Plated,PTH,ComponentDrill
T5C0.0402
; #@! TA.AperFunction,Plated,PTH,ComponentDrill
T6C0.0433
; #@! TA.AperFunction,Plated,PTH,ComponentDrill
T7C0.0787
%
G90
G05
T1
X7.56Y-4.24
X7.98Y-3.86
X8.0Y-3.22
X8.56Y-4.04
T2
X5.875Y-4.425
X5.875Y-4.625
X6.0Y-4.425
X6.0Y-4.625
T3
X5.5Y-3.1875
X5.5Y-3.3647
X5.5Y-3.8125
X5.5Y-3.9897
X5.5Y-4.4375
X5.5Y-4.6147
X5.7559Y-3.1875
X5.7559Y-3.3647
X5.7559Y-3.8125
X5.7559Y-3.9897
X5.7559Y-4.4375
X5.7559Y-4.6147
X6.125Y-3.1875
X6.125Y-3.3647
X6.125Y-3.8125
X6.125Y-3.9897
X6.125Y-4.4375
X6.125Y-4.6147
X6.3809Y-3.1875
X6.3809Y-3.3647
X6.3809Y-3.8125
X6.3809Y-3.9897
X6.3809Y-4.4375
X6.3809Y-4.6147
X6.75Y-3.1875
X6.75Y-3.3647
X6.75Y-3.8125
X6.75Y-3.9897
X6.75Y-4.4375
X6.75Y-4.6147
X7.0059Y-3.1875
X7.0059Y-3.3647
X7.0059Y-3.8125
X7.0059Y-3.9897
X7.0059Y-4.4375
X7.0059Y-4.6147
X7.375Y-3.1875
X7.375Y-3.3647
X7.375Y-3.8125
X7.375Y-3.9897
X7.375Y-4.4375
X7.375Y-4.6147
X7.6309Y-3.1875
X7.6309Y-3.3647
X7.6309Y-3.8125
X7.6309Y-3.9897
X7.6309Y-4.4375
X7.6309Y-4.6147
T4
X5.3384Y-4.38
X5.3394Y-4.04
X5.3394Y-4.2
X5.34Y-3.4
X5.34Y-3.54
X5.34Y-3.68
X5.34Y-3.84
T5
X7.775Y-3.2153
X7.775Y-3.3153
X7.775Y-3.4153
X7.775Y-3.5153
X7.775Y-3.6153
X7.775Y-3.7153
X7.775Y-3.8153
X7.775Y-3.9153
X7.775Y-4.0153
X7.775Y-4.1153
X7.775Y-4.2153
X7.775Y-4.3153
X7.775Y-4.4153
X7.775Y-4.5153
X7.775Y-4.6153
X8.675Y-3.2153
X8.675Y-3.3153
X8.675Y-3.4153
X8.675Y-3.5153
X8.675Y-3.6153
X8.675Y-3.7153
X8.675Y-3.8153
X8.675Y-3.9153
X8.675Y-4.0153
X8.675Y-4.1153
X8.675Y-4.2153
X8.675Y-4.3153
X8.675Y-4.4153
X8.675Y-4.5153
X8.675Y-4.6153
T6
X8.092Y-3.188
X8.092Y-3.7589
X8.1905Y-3.7589
X8.2889Y-3.188
X8.2889Y-3.7589
T7
G00X7.966Y-3.4478
M15
G01X7.966Y-3.4793
M16
G05
G00X8.4149Y-3.4478
M15
G01X8.4149Y-3.4793
M16
G05
T0
M30
