%TF.GenerationSoftware,KiCad,Pcbnew,(6.0.10-0)*%
%TF.CreationDate,2023-03-18T12:33:40-04:00*%
%TF.ProjectId,Shuttle Tracker Node,53687574-746c-4652-9054-7261636b6572,rev?*%
%TF.SameCoordinates,Original*%
%TF.FileFunction,Legend,Top*%
%TF.FilePolarity,Positive*%
%FSLAX46Y46*%
G04 Gerber Fmt 4.6, Leading zero omitted, Abs format (unit mm)*
G04 Created by KiCad (PCBNEW (6.0.10-0)) date 2023-03-18 12:33:40*
%MOMM*%
%LPD*%
G01*
G04 APERTURE LIST*
%ADD10C,0.000000*%
%ADD11C,0.150000*%
%ADD12C,0.120000*%
%ADD13C,0.127000*%
%ADD14C,0.200000*%
G04 APERTURE END LIST*
D10*
G36*
X212466414Y-101338825D02*
G01*
X212645635Y-101352070D01*
X212822293Y-101373888D01*
X212996182Y-101404070D01*
X213167097Y-101442406D01*
X213334835Y-101488687D01*
X213499191Y-101542704D01*
X213659960Y-101604246D01*
X213816937Y-101673104D01*
X213969918Y-101749068D01*
X214118698Y-101831929D01*
X214263073Y-101921478D01*
X214402838Y-102017504D01*
X214537789Y-102119798D01*
X214667721Y-102228150D01*
X214792429Y-102342352D01*
X214911709Y-102462193D01*
X215025356Y-102587463D01*
X215133166Y-102717954D01*
X215234934Y-102853455D01*
X215330456Y-102993757D01*
X215419526Y-103138651D01*
X215501941Y-103287926D01*
X215577496Y-103441374D01*
X215645986Y-103598784D01*
X215707206Y-103759947D01*
X215760953Y-103924654D01*
X215807021Y-104092694D01*
X215845206Y-104263859D01*
X215875303Y-104437938D01*
X215897109Y-104614723D01*
X215910417Y-104794003D01*
X210344696Y-104794003D01*
X210202533Y-104796371D01*
X210061156Y-104803442D01*
X209920661Y-104815161D01*
X209781142Y-104831471D01*
X209642698Y-104852315D01*
X209505423Y-104877638D01*
X209369414Y-104907381D01*
X209234767Y-104941490D01*
X209101578Y-104979908D01*
X208969944Y-105022578D01*
X208839960Y-105069444D01*
X208711723Y-105120450D01*
X208585329Y-105175539D01*
X208460874Y-105234654D01*
X208338454Y-105297740D01*
X208218165Y-105364740D01*
X208100103Y-105435598D01*
X207984365Y-105510256D01*
X207871047Y-105588660D01*
X207760245Y-105670752D01*
X207652055Y-105756475D01*
X207546573Y-105845774D01*
X207443895Y-105938593D01*
X207344117Y-106034874D01*
X207247337Y-106134561D01*
X207153649Y-106237598D01*
X207063150Y-106343929D01*
X206975936Y-106453497D01*
X206892103Y-106566246D01*
X206811748Y-106682119D01*
X206734966Y-106801060D01*
X206661854Y-106923012D01*
X203599977Y-112225500D01*
X202999047Y-113267112D01*
X202927921Y-113157097D01*
X202860664Y-113044450D01*
X202797375Y-112929261D01*
X202738155Y-112811619D01*
X202683103Y-112691613D01*
X202632316Y-112569334D01*
X202585896Y-112444869D01*
X202543941Y-112318309D01*
X202506550Y-112189743D01*
X202473822Y-112059260D01*
X202445858Y-111926950D01*
X202422755Y-111792902D01*
X202404613Y-111657205D01*
X202391533Y-111519949D01*
X202383611Y-111381224D01*
X202380949Y-111241118D01*
X202380949Y-106757039D01*
X205520085Y-106757039D01*
X205615618Y-106598702D01*
X205716373Y-106444710D01*
X205822200Y-106295152D01*
X205932950Y-106150115D01*
X206048475Y-106009685D01*
X206168626Y-105873951D01*
X206293255Y-105742998D01*
X206422213Y-105616915D01*
X206555350Y-105495788D01*
X206692519Y-105379704D01*
X206833571Y-105268752D01*
X206978356Y-105163017D01*
X207126727Y-105062588D01*
X207278535Y-104967551D01*
X207433630Y-104877993D01*
X207591864Y-104794003D01*
X202398118Y-104794003D01*
X202411428Y-104614725D01*
X202433219Y-104437943D01*
X202463286Y-104263865D01*
X202501426Y-104092702D01*
X202547435Y-103924663D01*
X202601111Y-103759957D01*
X202662250Y-103598795D01*
X202730648Y-103441385D01*
X202806101Y-103287938D01*
X202888407Y-103138663D01*
X202977362Y-102993769D01*
X203072761Y-102853467D01*
X203174403Y-102717966D01*
X203282082Y-102587475D01*
X203395597Y-102462204D01*
X203514742Y-102342362D01*
X203639316Y-102228160D01*
X203769113Y-102119807D01*
X203903931Y-102017512D01*
X204043567Y-101921485D01*
X204187816Y-101831936D01*
X204336475Y-101749074D01*
X204489341Y-101673109D01*
X204646210Y-101604250D01*
X204806880Y-101542707D01*
X204971145Y-101488690D01*
X205138803Y-101442408D01*
X205309650Y-101404071D01*
X205483483Y-101373889D01*
X205660098Y-101352070D01*
X205839292Y-101338826D01*
X206020861Y-101334364D01*
X212284832Y-101334364D01*
X212466414Y-101338825D01*
G37*
G36*
X215927615Y-111241118D02*
G01*
X215922871Y-111428449D01*
X215908793Y-111613318D01*
X215885610Y-111795497D01*
X215853552Y-111974758D01*
X215812849Y-112150871D01*
X215763729Y-112323608D01*
X215706423Y-112492741D01*
X215641161Y-112658040D01*
X215568171Y-112819278D01*
X215487684Y-112976226D01*
X215399929Y-113128654D01*
X215305136Y-113276336D01*
X215203534Y-113419042D01*
X215095353Y-113556543D01*
X214980822Y-113688611D01*
X214860172Y-113815017D01*
X214733631Y-113935533D01*
X214601430Y-114049931D01*
X214463798Y-114157981D01*
X214320965Y-114259455D01*
X214173159Y-114354125D01*
X214020612Y-114441762D01*
X213863552Y-114522137D01*
X213702209Y-114595022D01*
X213536813Y-114660189D01*
X213367593Y-114717408D01*
X213194778Y-114766451D01*
X213018600Y-114807090D01*
X212839286Y-114839096D01*
X212657067Y-114862240D01*
X212472173Y-114876294D01*
X212284832Y-114881030D01*
X206020861Y-114881030D01*
X205928292Y-114879762D01*
X205836200Y-114876017D01*
X205744643Y-114869889D01*
X205653678Y-114861467D01*
X205563362Y-114850844D01*
X205473753Y-114838111D01*
X205384907Y-114823360D01*
X205296882Y-114806682D01*
X209039823Y-108322314D01*
X209149965Y-108145404D01*
X209270641Y-107977532D01*
X209401279Y-107819027D01*
X209541311Y-107670215D01*
X209690166Y-107531425D01*
X209847274Y-107402984D01*
X210012065Y-107285220D01*
X210183969Y-107178461D01*
X210362416Y-107083034D01*
X210546836Y-106999268D01*
X210736659Y-106927490D01*
X210931315Y-106868029D01*
X211130234Y-106821210D01*
X211332846Y-106787364D01*
X211538580Y-106766816D01*
X211746868Y-106759896D01*
X215927615Y-106759896D01*
X215927615Y-111241118D01*
G37*
D11*
X207137142Y-118562380D02*
X206565714Y-118562380D01*
X206851428Y-118562380D02*
X206851428Y-117562380D01*
X206756190Y-117705238D01*
X206660952Y-117800476D01*
X206565714Y-117848095D01*
X207565714Y-118467142D02*
X207613333Y-118514761D01*
X207565714Y-118562380D01*
X207518095Y-118514761D01*
X207565714Y-118467142D01*
X207565714Y-118562380D01*
X208232380Y-117562380D02*
X208327619Y-117562380D01*
X208422857Y-117610000D01*
X208470476Y-117657619D01*
X208518095Y-117752857D01*
X208565714Y-117943333D01*
X208565714Y-118181428D01*
X208518095Y-118371904D01*
X208470476Y-118467142D01*
X208422857Y-118514761D01*
X208327619Y-118562380D01*
X208232380Y-118562380D01*
X208137142Y-118514761D01*
X208089523Y-118467142D01*
X208041904Y-118371904D01*
X207994285Y-118181428D01*
X207994285Y-117943333D01*
X208041904Y-117752857D01*
X208089523Y-117657619D01*
X208137142Y-117610000D01*
X208232380Y-117562380D01*
X208994285Y-118467142D02*
X209041904Y-118514761D01*
X208994285Y-118562380D01*
X208946666Y-118514761D01*
X208994285Y-118467142D01*
X208994285Y-118562380D01*
X209946666Y-117562380D02*
X209470476Y-117562380D01*
X209422857Y-118038571D01*
X209470476Y-117990952D01*
X209565714Y-117943333D01*
X209803809Y-117943333D01*
X209899047Y-117990952D01*
X209946666Y-118038571D01*
X209994285Y-118133809D01*
X209994285Y-118371904D01*
X209946666Y-118467142D01*
X209899047Y-118514761D01*
X209803809Y-118562380D01*
X209565714Y-118562380D01*
X209470476Y-118514761D01*
X209422857Y-118467142D01*
X201129285Y-116609761D02*
X201272142Y-116657380D01*
X201510238Y-116657380D01*
X201605476Y-116609761D01*
X201653095Y-116562142D01*
X201700714Y-116466904D01*
X201700714Y-116371666D01*
X201653095Y-116276428D01*
X201605476Y-116228809D01*
X201510238Y-116181190D01*
X201319761Y-116133571D01*
X201224523Y-116085952D01*
X201176904Y-116038333D01*
X201129285Y-115943095D01*
X201129285Y-115847857D01*
X201176904Y-115752619D01*
X201224523Y-115705000D01*
X201319761Y-115657380D01*
X201557857Y-115657380D01*
X201700714Y-115705000D01*
X202129285Y-116657380D02*
X202129285Y-115657380D01*
X202557857Y-116657380D02*
X202557857Y-116133571D01*
X202510238Y-116038333D01*
X202415000Y-115990714D01*
X202272142Y-115990714D01*
X202176904Y-116038333D01*
X202129285Y-116085952D01*
X203462619Y-115990714D02*
X203462619Y-116657380D01*
X203034047Y-115990714D02*
X203034047Y-116514523D01*
X203081666Y-116609761D01*
X203176904Y-116657380D01*
X203319761Y-116657380D01*
X203415000Y-116609761D01*
X203462619Y-116562142D01*
X203795952Y-115990714D02*
X204176904Y-115990714D01*
X203938809Y-115657380D02*
X203938809Y-116514523D01*
X203986428Y-116609761D01*
X204081666Y-116657380D01*
X204176904Y-116657380D01*
X204367380Y-115990714D02*
X204748333Y-115990714D01*
X204510238Y-115657380D02*
X204510238Y-116514523D01*
X204557857Y-116609761D01*
X204653095Y-116657380D01*
X204748333Y-116657380D01*
X205224523Y-116657380D02*
X205129285Y-116609761D01*
X205081666Y-116514523D01*
X205081666Y-115657380D01*
X205986428Y-116609761D02*
X205891190Y-116657380D01*
X205700714Y-116657380D01*
X205605476Y-116609761D01*
X205557857Y-116514523D01*
X205557857Y-116133571D01*
X205605476Y-116038333D01*
X205700714Y-115990714D01*
X205891190Y-115990714D01*
X205986428Y-116038333D01*
X206034047Y-116133571D01*
X206034047Y-116228809D01*
X205557857Y-116324047D01*
X207081666Y-115657380D02*
X207653095Y-115657380D01*
X207367380Y-116657380D02*
X207367380Y-115657380D01*
X207986428Y-116657380D02*
X207986428Y-115990714D01*
X207986428Y-116181190D02*
X208034047Y-116085952D01*
X208081666Y-116038333D01*
X208176904Y-115990714D01*
X208272142Y-115990714D01*
X209034047Y-116657380D02*
X209034047Y-116133571D01*
X208986428Y-116038333D01*
X208891190Y-115990714D01*
X208700714Y-115990714D01*
X208605476Y-116038333D01*
X209034047Y-116609761D02*
X208938809Y-116657380D01*
X208700714Y-116657380D01*
X208605476Y-116609761D01*
X208557857Y-116514523D01*
X208557857Y-116419285D01*
X208605476Y-116324047D01*
X208700714Y-116276428D01*
X208938809Y-116276428D01*
X209034047Y-116228809D01*
X209938809Y-116609761D02*
X209843571Y-116657380D01*
X209653095Y-116657380D01*
X209557857Y-116609761D01*
X209510238Y-116562142D01*
X209462619Y-116466904D01*
X209462619Y-116181190D01*
X209510238Y-116085952D01*
X209557857Y-116038333D01*
X209653095Y-115990714D01*
X209843571Y-115990714D01*
X209938809Y-116038333D01*
X210367380Y-116657380D02*
X210367380Y-115657380D01*
X210462619Y-116276428D02*
X210748333Y-116657380D01*
X210748333Y-115990714D02*
X210367380Y-116371666D01*
X211557857Y-116609761D02*
X211462619Y-116657380D01*
X211272142Y-116657380D01*
X211176904Y-116609761D01*
X211129285Y-116514523D01*
X211129285Y-116133571D01*
X211176904Y-116038333D01*
X211272142Y-115990714D01*
X211462619Y-115990714D01*
X211557857Y-116038333D01*
X211605476Y-116133571D01*
X211605476Y-116228809D01*
X211129285Y-116324047D01*
X212034047Y-116657380D02*
X212034047Y-115990714D01*
X212034047Y-116181190D02*
X212081666Y-116085952D01*
X212129285Y-116038333D01*
X212224523Y-115990714D01*
X212319761Y-115990714D01*
X213415000Y-116657380D02*
X213415000Y-115657380D01*
X213986428Y-116657380D01*
X213986428Y-115657380D01*
X214605476Y-116657380D02*
X214510238Y-116609761D01*
X214462619Y-116562142D01*
X214415000Y-116466904D01*
X214415000Y-116181190D01*
X214462619Y-116085952D01*
X214510238Y-116038333D01*
X214605476Y-115990714D01*
X214748333Y-115990714D01*
X214843571Y-116038333D01*
X214891190Y-116085952D01*
X214938809Y-116181190D01*
X214938809Y-116466904D01*
X214891190Y-116562142D01*
X214843571Y-116609761D01*
X214748333Y-116657380D01*
X214605476Y-116657380D01*
X215795952Y-116657380D02*
X215795952Y-115657380D01*
X215795952Y-116609761D02*
X215700714Y-116657380D01*
X215510238Y-116657380D01*
X215415000Y-116609761D01*
X215367380Y-116562142D01*
X215319761Y-116466904D01*
X215319761Y-116181190D01*
X215367380Y-116085952D01*
X215415000Y-116038333D01*
X215510238Y-115990714D01*
X215700714Y-115990714D01*
X215795952Y-116038333D01*
X216653095Y-116609761D02*
X216557857Y-116657380D01*
X216367380Y-116657380D01*
X216272142Y-116609761D01*
X216224523Y-116514523D01*
X216224523Y-116133571D01*
X216272142Y-116038333D01*
X216367380Y-115990714D01*
X216557857Y-115990714D01*
X216653095Y-116038333D01*
X216700714Y-116133571D01*
X216700714Y-116228809D01*
X216224523Y-116324047D01*
%TO.C,J4*%
X132838380Y-97869333D02*
X133552666Y-97869333D01*
X133695523Y-97916952D01*
X133790761Y-98012190D01*
X133838380Y-98155047D01*
X133838380Y-98250285D01*
X133171714Y-96964571D02*
X133838380Y-96964571D01*
X132790761Y-97202666D02*
X133505047Y-97440761D01*
X133505047Y-96821714D01*
%TO.C,SW4*%
X185991666Y-78954261D02*
X186134523Y-79001880D01*
X186372619Y-79001880D01*
X186467857Y-78954261D01*
X186515476Y-78906642D01*
X186563095Y-78811404D01*
X186563095Y-78716166D01*
X186515476Y-78620928D01*
X186467857Y-78573309D01*
X186372619Y-78525690D01*
X186182142Y-78478071D01*
X186086904Y-78430452D01*
X186039285Y-78382833D01*
X185991666Y-78287595D01*
X185991666Y-78192357D01*
X186039285Y-78097119D01*
X186086904Y-78049500D01*
X186182142Y-78001880D01*
X186420238Y-78001880D01*
X186563095Y-78049500D01*
X186896428Y-78001880D02*
X187134523Y-79001880D01*
X187325000Y-78287595D01*
X187515476Y-79001880D01*
X187753571Y-78001880D01*
X188563095Y-78335214D02*
X188563095Y-79001880D01*
X188325000Y-77954261D02*
X188086904Y-78668547D01*
X188705952Y-78668547D01*
X187325000Y-80414880D02*
X187325000Y-80652976D01*
X187086904Y-80557738D02*
X187325000Y-80652976D01*
X187563095Y-80557738D01*
X187182142Y-80843452D02*
X187325000Y-80652976D01*
X187467857Y-80843452D01*
%TO.C,SW9*%
X138366666Y-110704261D02*
X138509523Y-110751880D01*
X138747619Y-110751880D01*
X138842857Y-110704261D01*
X138890476Y-110656642D01*
X138938095Y-110561404D01*
X138938095Y-110466166D01*
X138890476Y-110370928D01*
X138842857Y-110323309D01*
X138747619Y-110275690D01*
X138557142Y-110228071D01*
X138461904Y-110180452D01*
X138414285Y-110132833D01*
X138366666Y-110037595D01*
X138366666Y-109942357D01*
X138414285Y-109847119D01*
X138461904Y-109799500D01*
X138557142Y-109751880D01*
X138795238Y-109751880D01*
X138938095Y-109799500D01*
X139271428Y-109751880D02*
X139509523Y-110751880D01*
X139700000Y-110037595D01*
X139890476Y-110751880D01*
X140128571Y-109751880D01*
X140557142Y-110751880D02*
X140747619Y-110751880D01*
X140842857Y-110704261D01*
X140890476Y-110656642D01*
X140985714Y-110513785D01*
X141033333Y-110323309D01*
X141033333Y-109942357D01*
X140985714Y-109847119D01*
X140938095Y-109799500D01*
X140842857Y-109751880D01*
X140652380Y-109751880D01*
X140557142Y-109799500D01*
X140509523Y-109847119D01*
X140461904Y-109942357D01*
X140461904Y-110180452D01*
X140509523Y-110275690D01*
X140557142Y-110323309D01*
X140652380Y-110370928D01*
X140842857Y-110370928D01*
X140938095Y-110323309D01*
X140985714Y-110275690D01*
X141033333Y-110180452D01*
X139700000Y-112164880D02*
X139700000Y-112402976D01*
X139461904Y-112307738D02*
X139700000Y-112402976D01*
X139938095Y-112307738D01*
X139557142Y-112593452D02*
X139700000Y-112402976D01*
X139842857Y-112593452D01*
%TO.C,J2*%
X132838380Y-90249333D02*
X133552666Y-90249333D01*
X133695523Y-90296952D01*
X133790761Y-90392190D01*
X133838380Y-90535047D01*
X133838380Y-90630285D01*
X132933619Y-89820761D02*
X132886000Y-89773142D01*
X132838380Y-89677904D01*
X132838380Y-89439809D01*
X132886000Y-89344571D01*
X132933619Y-89296952D01*
X133028857Y-89249333D01*
X133124095Y-89249333D01*
X133266952Y-89296952D01*
X133838380Y-89868380D01*
X133838380Y-89249333D01*
%TO.C,J3*%
X132838380Y-93805333D02*
X133552666Y-93805333D01*
X133695523Y-93852952D01*
X133790761Y-93948190D01*
X133838380Y-94091047D01*
X133838380Y-94186285D01*
X132838380Y-93424380D02*
X132838380Y-92805333D01*
X133219333Y-93138666D01*
X133219333Y-92995809D01*
X133266952Y-92900571D01*
X133314571Y-92852952D01*
X133409809Y-92805333D01*
X133647904Y-92805333D01*
X133743142Y-92852952D01*
X133790761Y-92900571D01*
X133838380Y-92995809D01*
X133838380Y-93281523D01*
X133790761Y-93376761D01*
X133743142Y-93424380D01*
%TO.C,SW2*%
X154241666Y-78954261D02*
X154384523Y-79001880D01*
X154622619Y-79001880D01*
X154717857Y-78954261D01*
X154765476Y-78906642D01*
X154813095Y-78811404D01*
X154813095Y-78716166D01*
X154765476Y-78620928D01*
X154717857Y-78573309D01*
X154622619Y-78525690D01*
X154432142Y-78478071D01*
X154336904Y-78430452D01*
X154289285Y-78382833D01*
X154241666Y-78287595D01*
X154241666Y-78192357D01*
X154289285Y-78097119D01*
X154336904Y-78049500D01*
X154432142Y-78001880D01*
X154670238Y-78001880D01*
X154813095Y-78049500D01*
X155146428Y-78001880D02*
X155384523Y-79001880D01*
X155575000Y-78287595D01*
X155765476Y-79001880D01*
X156003571Y-78001880D01*
X156336904Y-78097119D02*
X156384523Y-78049500D01*
X156479761Y-78001880D01*
X156717857Y-78001880D01*
X156813095Y-78049500D01*
X156860714Y-78097119D01*
X156908333Y-78192357D01*
X156908333Y-78287595D01*
X156860714Y-78430452D01*
X156289285Y-79001880D01*
X156908333Y-79001880D01*
X155575000Y-80414880D02*
X155575000Y-80652976D01*
X155336904Y-80557738D02*
X155575000Y-80652976D01*
X155813095Y-80557738D01*
X155432142Y-80843452D02*
X155575000Y-80652976D01*
X155717857Y-80843452D01*
%TO.C,J5*%
X132822380Y-102949333D02*
X133536666Y-102949333D01*
X133679523Y-102996952D01*
X133774761Y-103092190D01*
X133822380Y-103235047D01*
X133822380Y-103330285D01*
X132822380Y-101996952D02*
X132822380Y-102473142D01*
X133298571Y-102520761D01*
X133250952Y-102473142D01*
X133203333Y-102377904D01*
X133203333Y-102139809D01*
X133250952Y-102044571D01*
X133298571Y-101996952D01*
X133393809Y-101949333D01*
X133631904Y-101949333D01*
X133727142Y-101996952D01*
X133774761Y-102044571D01*
X133822380Y-102139809D01*
X133822380Y-102377904D01*
X133774761Y-102473142D01*
X133727142Y-102520761D01*
%TO.C,SW10*%
X153765476Y-110704261D02*
X153908333Y-110751880D01*
X154146428Y-110751880D01*
X154241666Y-110704261D01*
X154289285Y-110656642D01*
X154336904Y-110561404D01*
X154336904Y-110466166D01*
X154289285Y-110370928D01*
X154241666Y-110323309D01*
X154146428Y-110275690D01*
X153955952Y-110228071D01*
X153860714Y-110180452D01*
X153813095Y-110132833D01*
X153765476Y-110037595D01*
X153765476Y-109942357D01*
X153813095Y-109847119D01*
X153860714Y-109799500D01*
X153955952Y-109751880D01*
X154194047Y-109751880D01*
X154336904Y-109799500D01*
X154670238Y-109751880D02*
X154908333Y-110751880D01*
X155098809Y-110037595D01*
X155289285Y-110751880D01*
X155527380Y-109751880D01*
X156432142Y-110751880D02*
X155860714Y-110751880D01*
X156146428Y-110751880D02*
X156146428Y-109751880D01*
X156051190Y-109894738D01*
X155955952Y-109989976D01*
X155860714Y-110037595D01*
X157051190Y-109751880D02*
X157146428Y-109751880D01*
X157241666Y-109799500D01*
X157289285Y-109847119D01*
X157336904Y-109942357D01*
X157384523Y-110132833D01*
X157384523Y-110370928D01*
X157336904Y-110561404D01*
X157289285Y-110656642D01*
X157241666Y-110704261D01*
X157146428Y-110751880D01*
X157051190Y-110751880D01*
X156955952Y-110704261D01*
X156908333Y-110656642D01*
X156860714Y-110561404D01*
X156813095Y-110370928D01*
X156813095Y-110132833D01*
X156860714Y-109942357D01*
X156908333Y-109847119D01*
X156955952Y-109799500D01*
X157051190Y-109751880D01*
X155575000Y-112164880D02*
X155575000Y-112402976D01*
X155336904Y-112307738D02*
X155575000Y-112402976D01*
X155813095Y-112307738D01*
X155432142Y-112593452D02*
X155575000Y-112402976D01*
X155717857Y-112593452D01*
%TO.C,SW5*%
X138366666Y-94829261D02*
X138509523Y-94876880D01*
X138747619Y-94876880D01*
X138842857Y-94829261D01*
X138890476Y-94781642D01*
X138938095Y-94686404D01*
X138938095Y-94591166D01*
X138890476Y-94495928D01*
X138842857Y-94448309D01*
X138747619Y-94400690D01*
X138557142Y-94353071D01*
X138461904Y-94305452D01*
X138414285Y-94257833D01*
X138366666Y-94162595D01*
X138366666Y-94067357D01*
X138414285Y-93972119D01*
X138461904Y-93924500D01*
X138557142Y-93876880D01*
X138795238Y-93876880D01*
X138938095Y-93924500D01*
X139271428Y-93876880D02*
X139509523Y-94876880D01*
X139700000Y-94162595D01*
X139890476Y-94876880D01*
X140128571Y-93876880D01*
X140985714Y-93876880D02*
X140509523Y-93876880D01*
X140461904Y-94353071D01*
X140509523Y-94305452D01*
X140604761Y-94257833D01*
X140842857Y-94257833D01*
X140938095Y-94305452D01*
X140985714Y-94353071D01*
X141033333Y-94448309D01*
X141033333Y-94686404D01*
X140985714Y-94781642D01*
X140938095Y-94829261D01*
X140842857Y-94876880D01*
X140604761Y-94876880D01*
X140509523Y-94829261D01*
X140461904Y-94781642D01*
X139700000Y-96289880D02*
X139700000Y-96527976D01*
X139461904Y-96432738D02*
X139700000Y-96527976D01*
X139938095Y-96432738D01*
X139557142Y-96718452D02*
X139700000Y-96527976D01*
X139842857Y-96718452D01*
%TO.C,J6*%
X132822380Y-107013333D02*
X133536666Y-107013333D01*
X133679523Y-107060952D01*
X133774761Y-107156190D01*
X133822380Y-107299047D01*
X133822380Y-107394285D01*
X132822380Y-106108571D02*
X132822380Y-106299047D01*
X132870000Y-106394285D01*
X132917619Y-106441904D01*
X133060476Y-106537142D01*
X133250952Y-106584761D01*
X133631904Y-106584761D01*
X133727142Y-106537142D01*
X133774761Y-106489523D01*
X133822380Y-106394285D01*
X133822380Y-106203809D01*
X133774761Y-106108571D01*
X133727142Y-106060952D01*
X133631904Y-106013333D01*
X133393809Y-106013333D01*
X133298571Y-106060952D01*
X133250952Y-106108571D01*
X133203333Y-106203809D01*
X133203333Y-106394285D01*
X133250952Y-106489523D01*
X133298571Y-106537142D01*
X133393809Y-106584761D01*
%TO.C,SW3*%
X170116666Y-78954261D02*
X170259523Y-79001880D01*
X170497619Y-79001880D01*
X170592857Y-78954261D01*
X170640476Y-78906642D01*
X170688095Y-78811404D01*
X170688095Y-78716166D01*
X170640476Y-78620928D01*
X170592857Y-78573309D01*
X170497619Y-78525690D01*
X170307142Y-78478071D01*
X170211904Y-78430452D01*
X170164285Y-78382833D01*
X170116666Y-78287595D01*
X170116666Y-78192357D01*
X170164285Y-78097119D01*
X170211904Y-78049500D01*
X170307142Y-78001880D01*
X170545238Y-78001880D01*
X170688095Y-78049500D01*
X171021428Y-78001880D02*
X171259523Y-79001880D01*
X171450000Y-78287595D01*
X171640476Y-79001880D01*
X171878571Y-78001880D01*
X172164285Y-78001880D02*
X172783333Y-78001880D01*
X172450000Y-78382833D01*
X172592857Y-78382833D01*
X172688095Y-78430452D01*
X172735714Y-78478071D01*
X172783333Y-78573309D01*
X172783333Y-78811404D01*
X172735714Y-78906642D01*
X172688095Y-78954261D01*
X172592857Y-79001880D01*
X172307142Y-79001880D01*
X172211904Y-78954261D01*
X172164285Y-78906642D01*
X171450000Y-80414880D02*
X171450000Y-80652976D01*
X171211904Y-80557738D02*
X171450000Y-80652976D01*
X171688095Y-80557738D01*
X171307142Y-80843452D02*
X171450000Y-80652976D01*
X171592857Y-80843452D01*
%TO.C,SW1*%
X138366666Y-78954261D02*
X138509523Y-79001880D01*
X138747619Y-79001880D01*
X138842857Y-78954261D01*
X138890476Y-78906642D01*
X138938095Y-78811404D01*
X138938095Y-78716166D01*
X138890476Y-78620928D01*
X138842857Y-78573309D01*
X138747619Y-78525690D01*
X138557142Y-78478071D01*
X138461904Y-78430452D01*
X138414285Y-78382833D01*
X138366666Y-78287595D01*
X138366666Y-78192357D01*
X138414285Y-78097119D01*
X138461904Y-78049500D01*
X138557142Y-78001880D01*
X138795238Y-78001880D01*
X138938095Y-78049500D01*
X139271428Y-78001880D02*
X139509523Y-79001880D01*
X139700000Y-78287595D01*
X139890476Y-79001880D01*
X140128571Y-78001880D01*
X141033333Y-79001880D02*
X140461904Y-79001880D01*
X140747619Y-79001880D02*
X140747619Y-78001880D01*
X140652380Y-78144738D01*
X140557142Y-78239976D01*
X140461904Y-78287595D01*
X139700000Y-80414880D02*
X139700000Y-80652976D01*
X139461904Y-80557738D02*
X139700000Y-80652976D01*
X139938095Y-80557738D01*
X139557142Y-80843452D02*
X139700000Y-80652976D01*
X139842857Y-80843452D01*
%TO.C,SW13*%
X202052977Y-79544762D02*
X202195834Y-79592381D01*
X202433929Y-79592381D01*
X202529167Y-79544762D01*
X202576786Y-79497143D01*
X202624405Y-79401905D01*
X202624405Y-79306667D01*
X202576786Y-79211429D01*
X202529167Y-79163810D01*
X202433929Y-79116191D01*
X202243453Y-79068572D01*
X202148215Y-79020953D01*
X202100596Y-78973334D01*
X202052977Y-78878096D01*
X202052977Y-78782858D01*
X202100596Y-78687620D01*
X202148215Y-78640001D01*
X202243453Y-78592381D01*
X202481548Y-78592381D01*
X202624405Y-78640001D01*
X202957739Y-78592381D02*
X203195834Y-79592381D01*
X203386310Y-78878096D01*
X203576786Y-79592381D01*
X203814881Y-78592381D01*
X204719643Y-79592381D02*
X204148215Y-79592381D01*
X204433929Y-79592381D02*
X204433929Y-78592381D01*
X204338691Y-78735239D01*
X204243453Y-78830477D01*
X204148215Y-78878096D01*
X205052977Y-78592381D02*
X205672024Y-78592381D01*
X205338691Y-78973334D01*
X205481548Y-78973334D01*
X205576786Y-79020953D01*
X205624405Y-79068572D01*
X205672024Y-79163810D01*
X205672024Y-79401905D01*
X205624405Y-79497143D01*
X205576786Y-79544762D01*
X205481548Y-79592381D01*
X205195834Y-79592381D01*
X205100596Y-79544762D01*
X205052977Y-79497143D01*
%TO.C,SW11*%
X169640476Y-110704261D02*
X169783333Y-110751880D01*
X170021428Y-110751880D01*
X170116666Y-110704261D01*
X170164285Y-110656642D01*
X170211904Y-110561404D01*
X170211904Y-110466166D01*
X170164285Y-110370928D01*
X170116666Y-110323309D01*
X170021428Y-110275690D01*
X169830952Y-110228071D01*
X169735714Y-110180452D01*
X169688095Y-110132833D01*
X169640476Y-110037595D01*
X169640476Y-109942357D01*
X169688095Y-109847119D01*
X169735714Y-109799500D01*
X169830952Y-109751880D01*
X170069047Y-109751880D01*
X170211904Y-109799500D01*
X170545238Y-109751880D02*
X170783333Y-110751880D01*
X170973809Y-110037595D01*
X171164285Y-110751880D01*
X171402380Y-109751880D01*
X172307142Y-110751880D02*
X171735714Y-110751880D01*
X172021428Y-110751880D02*
X172021428Y-109751880D01*
X171926190Y-109894738D01*
X171830952Y-109989976D01*
X171735714Y-110037595D01*
X173259523Y-110751880D02*
X172688095Y-110751880D01*
X172973809Y-110751880D02*
X172973809Y-109751880D01*
X172878571Y-109894738D01*
X172783333Y-109989976D01*
X172688095Y-110037595D01*
X171450000Y-112164880D02*
X171450000Y-112402976D01*
X171211904Y-112307738D02*
X171450000Y-112402976D01*
X171688095Y-112307738D01*
X171307142Y-112593452D02*
X171450000Y-112402976D01*
X171592857Y-112593452D01*
%TO.C,SW12*%
X185515476Y-110704261D02*
X185658333Y-110751880D01*
X185896428Y-110751880D01*
X185991666Y-110704261D01*
X186039285Y-110656642D01*
X186086904Y-110561404D01*
X186086904Y-110466166D01*
X186039285Y-110370928D01*
X185991666Y-110323309D01*
X185896428Y-110275690D01*
X185705952Y-110228071D01*
X185610714Y-110180452D01*
X185563095Y-110132833D01*
X185515476Y-110037595D01*
X185515476Y-109942357D01*
X185563095Y-109847119D01*
X185610714Y-109799500D01*
X185705952Y-109751880D01*
X185944047Y-109751880D01*
X186086904Y-109799500D01*
X186420238Y-109751880D02*
X186658333Y-110751880D01*
X186848809Y-110037595D01*
X187039285Y-110751880D01*
X187277380Y-109751880D01*
X188182142Y-110751880D02*
X187610714Y-110751880D01*
X187896428Y-110751880D02*
X187896428Y-109751880D01*
X187801190Y-109894738D01*
X187705952Y-109989976D01*
X187610714Y-110037595D01*
X188563095Y-109847119D02*
X188610714Y-109799500D01*
X188705952Y-109751880D01*
X188944047Y-109751880D01*
X189039285Y-109799500D01*
X189086904Y-109847119D01*
X189134523Y-109942357D01*
X189134523Y-110037595D01*
X189086904Y-110180452D01*
X188515476Y-110751880D01*
X189134523Y-110751880D01*
X187325000Y-112164880D02*
X187325000Y-112402976D01*
X187086904Y-112307738D02*
X187325000Y-112402976D01*
X187563095Y-112307738D01*
X187182142Y-112593452D02*
X187325000Y-112402976D01*
X187467857Y-112593452D01*
%TO.C,SW6*%
X154241666Y-94829261D02*
X154384523Y-94876880D01*
X154622619Y-94876880D01*
X154717857Y-94829261D01*
X154765476Y-94781642D01*
X154813095Y-94686404D01*
X154813095Y-94591166D01*
X154765476Y-94495928D01*
X154717857Y-94448309D01*
X154622619Y-94400690D01*
X154432142Y-94353071D01*
X154336904Y-94305452D01*
X154289285Y-94257833D01*
X154241666Y-94162595D01*
X154241666Y-94067357D01*
X154289285Y-93972119D01*
X154336904Y-93924500D01*
X154432142Y-93876880D01*
X154670238Y-93876880D01*
X154813095Y-93924500D01*
X155146428Y-93876880D02*
X155384523Y-94876880D01*
X155575000Y-94162595D01*
X155765476Y-94876880D01*
X156003571Y-93876880D01*
X156813095Y-93876880D02*
X156622619Y-93876880D01*
X156527380Y-93924500D01*
X156479761Y-93972119D01*
X156384523Y-94114976D01*
X156336904Y-94305452D01*
X156336904Y-94686404D01*
X156384523Y-94781642D01*
X156432142Y-94829261D01*
X156527380Y-94876880D01*
X156717857Y-94876880D01*
X156813095Y-94829261D01*
X156860714Y-94781642D01*
X156908333Y-94686404D01*
X156908333Y-94448309D01*
X156860714Y-94353071D01*
X156813095Y-94305452D01*
X156717857Y-94257833D01*
X156527380Y-94257833D01*
X156432142Y-94305452D01*
X156384523Y-94353071D01*
X156336904Y-94448309D01*
X155575000Y-96289880D02*
X155575000Y-96527976D01*
X155336904Y-96432738D02*
X155575000Y-96527976D01*
X155813095Y-96432738D01*
X155432142Y-96718452D02*
X155575000Y-96527976D01*
X155717857Y-96718452D01*
%TO.C,SW7*%
X170116666Y-94829261D02*
X170259523Y-94876880D01*
X170497619Y-94876880D01*
X170592857Y-94829261D01*
X170640476Y-94781642D01*
X170688095Y-94686404D01*
X170688095Y-94591166D01*
X170640476Y-94495928D01*
X170592857Y-94448309D01*
X170497619Y-94400690D01*
X170307142Y-94353071D01*
X170211904Y-94305452D01*
X170164285Y-94257833D01*
X170116666Y-94162595D01*
X170116666Y-94067357D01*
X170164285Y-93972119D01*
X170211904Y-93924500D01*
X170307142Y-93876880D01*
X170545238Y-93876880D01*
X170688095Y-93924500D01*
X171021428Y-93876880D02*
X171259523Y-94876880D01*
X171450000Y-94162595D01*
X171640476Y-94876880D01*
X171878571Y-93876880D01*
X172164285Y-93876880D02*
X172830952Y-93876880D01*
X172402380Y-94876880D01*
X171450000Y-96289880D02*
X171450000Y-96527976D01*
X171211904Y-96432738D02*
X171450000Y-96527976D01*
X171688095Y-96432738D01*
X171307142Y-96718452D02*
X171450000Y-96527976D01*
X171592857Y-96718452D01*
%TO.C,J1*%
X132838380Y-86693333D02*
X133552666Y-86693333D01*
X133695523Y-86740952D01*
X133790761Y-86836190D01*
X133838380Y-86979047D01*
X133838380Y-87074285D01*
X133838380Y-85693333D02*
X133838380Y-86264761D01*
X133838380Y-85979047D02*
X132838380Y-85979047D01*
X132981238Y-86074285D01*
X133076476Y-86169523D01*
X133124095Y-86264761D01*
%TO.C,J7*%
X132797074Y-111585333D02*
X133511360Y-111585333D01*
X133654217Y-111632952D01*
X133749455Y-111728190D01*
X133797074Y-111871047D01*
X133797074Y-111966285D01*
X132797074Y-111204380D02*
X132797074Y-110537714D01*
X133797074Y-110966285D01*
%TO.C,SW8*%
X185991666Y-94829261D02*
X186134523Y-94876880D01*
X186372619Y-94876880D01*
X186467857Y-94829261D01*
X186515476Y-94781642D01*
X186563095Y-94686404D01*
X186563095Y-94591166D01*
X186515476Y-94495928D01*
X186467857Y-94448309D01*
X186372619Y-94400690D01*
X186182142Y-94353071D01*
X186086904Y-94305452D01*
X186039285Y-94257833D01*
X185991666Y-94162595D01*
X185991666Y-94067357D01*
X186039285Y-93972119D01*
X186086904Y-93924500D01*
X186182142Y-93876880D01*
X186420238Y-93876880D01*
X186563095Y-93924500D01*
X186896428Y-93876880D02*
X187134523Y-94876880D01*
X187325000Y-94162595D01*
X187515476Y-94876880D01*
X187753571Y-93876880D01*
X188277380Y-94305452D02*
X188182142Y-94257833D01*
X188134523Y-94210214D01*
X188086904Y-94114976D01*
X188086904Y-94067357D01*
X188134523Y-93972119D01*
X188182142Y-93924500D01*
X188277380Y-93876880D01*
X188467857Y-93876880D01*
X188563095Y-93924500D01*
X188610714Y-93972119D01*
X188658333Y-94067357D01*
X188658333Y-94114976D01*
X188610714Y-94210214D01*
X188563095Y-94257833D01*
X188467857Y-94305452D01*
X188277380Y-94305452D01*
X188182142Y-94353071D01*
X188134523Y-94400690D01*
X188086904Y-94495928D01*
X188086904Y-94686404D01*
X188134523Y-94781642D01*
X188182142Y-94829261D01*
X188277380Y-94876880D01*
X188467857Y-94876880D01*
X188563095Y-94829261D01*
X188610714Y-94781642D01*
X188658333Y-94686404D01*
X188658333Y-94495928D01*
X188610714Y-94400690D01*
X188563095Y-94353071D01*
X188467857Y-94305452D01*
X187325000Y-96289880D02*
X187325000Y-96527976D01*
X187086904Y-96432738D02*
X187325000Y-96527976D01*
X187563095Y-96432738D01*
X187182142Y-96718452D02*
X187325000Y-96527976D01*
X187467857Y-96718452D01*
D12*
%TO.C,J4*%
X136887000Y-97536000D02*
G75*
G03*
X136887000Y-97536000I-1251000J0D01*
G01*
%TO.C,SW4*%
X187447999Y-82042256D02*
X187447999Y-84382745D01*
X187966772Y-86339502D02*
X193183230Y-86339502D01*
X193702003Y-84382745D02*
X193702003Y-82042256D01*
X193183230Y-80085499D02*
X187966772Y-80085499D01*
X187452000Y-78422500D02*
G75*
G03*
X187452000Y-78422500I-127000J0D01*
G01*
%TO.C,SW9*%
X145558230Y-111835499D02*
X140341772Y-111835499D01*
X146077003Y-116132745D02*
X146077003Y-113792256D01*
X140341772Y-118089502D02*
X145558230Y-118089502D01*
X139822999Y-113792256D02*
X139822999Y-116132745D01*
X139827000Y-110172500D02*
G75*
G03*
X139827000Y-110172500I-127000J0D01*
G01*
%TO.C,J2*%
X136887000Y-89916000D02*
G75*
G03*
X136887000Y-89916000I-1251000J0D01*
G01*
%TO.C,J3*%
X136887000Y-93472000D02*
G75*
G03*
X136887000Y-93472000I-1251000J0D01*
G01*
%TO.C,SW2*%
X161433230Y-80085499D02*
X156216772Y-80085499D01*
X156216772Y-86339502D02*
X161433230Y-86339502D01*
X161952003Y-84382745D02*
X161952003Y-82042256D01*
X155697999Y-82042256D02*
X155697999Y-84382745D01*
X155702000Y-78422500D02*
G75*
G03*
X155702000Y-78422500I-127000J0D01*
G01*
%TO.C,J5*%
X136871000Y-102616000D02*
G75*
G03*
X136871000Y-102616000I-1251000J0D01*
G01*
%TO.C,SW10*%
X156216772Y-118089502D02*
X161433230Y-118089502D01*
X161433230Y-111835499D02*
X156216772Y-111835499D01*
X161952003Y-116132745D02*
X161952003Y-113792256D01*
X155697999Y-113792256D02*
X155697999Y-116132745D01*
X155702000Y-110172500D02*
G75*
G03*
X155702000Y-110172500I-127000J0D01*
G01*
%TO.C,SW5*%
X139822999Y-97917256D02*
X139822999Y-100257745D01*
X145558230Y-95960499D02*
X140341772Y-95960499D01*
X146077003Y-100257745D02*
X146077003Y-97917256D01*
X140341772Y-102214502D02*
X145558230Y-102214502D01*
X139827000Y-94297500D02*
G75*
G03*
X139827000Y-94297500I-127000J0D01*
G01*
%TO.C,J6*%
X136871000Y-106680000D02*
G75*
G03*
X136871000Y-106680000I-1251000J0D01*
G01*
%TO.C,SW3*%
X171572999Y-82042256D02*
X171572999Y-84382745D01*
X177308230Y-80085499D02*
X172091772Y-80085499D01*
X177827003Y-84382745D02*
X177827003Y-82042256D01*
X172091772Y-86339502D02*
X177308230Y-86339502D01*
X171577000Y-78422500D02*
G75*
G03*
X171577000Y-78422500I-127000J0D01*
G01*
%TO.C,SW1*%
X145558230Y-80085499D02*
X140341772Y-80085499D01*
X140341772Y-86339502D02*
X145558230Y-86339502D01*
X146077003Y-84382745D02*
X146077003Y-82042256D01*
X139822999Y-82042256D02*
X139822999Y-84382745D01*
X139827000Y-78422500D02*
G75*
G03*
X139827000Y-78422500I-127000J0D01*
G01*
D13*
%TO.C,SW13*%
X201787501Y-81275001D02*
X204337501Y-81275001D01*
X201787501Y-84575001D02*
X201787501Y-81275001D01*
X201787501Y-91375001D02*
X201787501Y-94675001D01*
X201787501Y-94675001D02*
X204337501Y-94675001D01*
X214287501Y-94675001D02*
X214287501Y-91375001D01*
X211737501Y-81275001D02*
X214287501Y-81275001D01*
X211737501Y-94675001D02*
X214287501Y-94675001D01*
X214287501Y-81275001D02*
X214287501Y-84575001D01*
D14*
X203937501Y-80375001D02*
G75*
G03*
X203937501Y-80375001I-100000J0D01*
G01*
D12*
%TO.C,SW11*%
X177308230Y-111835499D02*
X172091772Y-111835499D01*
X177827003Y-116132745D02*
X177827003Y-113792256D01*
X171572999Y-113792256D02*
X171572999Y-116132745D01*
X172091772Y-118089502D02*
X177308230Y-118089502D01*
X171577000Y-110172500D02*
G75*
G03*
X171577000Y-110172500I-127000J0D01*
G01*
%TO.C,SW12*%
X193702003Y-116132745D02*
X193702003Y-113792256D01*
X187966772Y-118089502D02*
X193183230Y-118089502D01*
X193183230Y-111835499D02*
X187966772Y-111835499D01*
X187447999Y-113792256D02*
X187447999Y-116132745D01*
X187452000Y-110172500D02*
G75*
G03*
X187452000Y-110172500I-127000J0D01*
G01*
%TO.C,SW6*%
X155697999Y-97917256D02*
X155697999Y-100257745D01*
X161433230Y-95960499D02*
X156216772Y-95960499D01*
X156216772Y-102214502D02*
X161433230Y-102214502D01*
X161952003Y-100257745D02*
X161952003Y-97917256D01*
X155702000Y-94297500D02*
G75*
G03*
X155702000Y-94297500I-127000J0D01*
G01*
%TO.C,SW7*%
X171572999Y-97917256D02*
X171572999Y-100257745D01*
X177308230Y-95960499D02*
X172091772Y-95960499D01*
X177827003Y-100257745D02*
X177827003Y-97917256D01*
X172091772Y-102214502D02*
X177308230Y-102214502D01*
X171577000Y-94297500D02*
G75*
G03*
X171577000Y-94297500I-127000J0D01*
G01*
%TO.C,J1*%
X136887000Y-86360000D02*
G75*
G03*
X136887000Y-86360000I-1251000J0D01*
G01*
%TO.C,J7*%
X136845694Y-111252000D02*
G75*
G03*
X136845694Y-111252000I-1251000J0D01*
G01*
%TO.C,SW8*%
X193702003Y-100257745D02*
X193702003Y-97917256D01*
X187447999Y-97917256D02*
X187447999Y-100257745D01*
X193183230Y-95960499D02*
X187966772Y-95960499D01*
X187966772Y-102214502D02*
X193183230Y-102214502D01*
X187452000Y-94297500D02*
G75*
G03*
X187452000Y-94297500I-127000J0D01*
G01*
%TD*%
M02*
